<svg width="45" height="44" viewBox="0 0 45 44" fill="none" xmlns="http://www.w3.org/2000/svg">
<path fill-rule="evenodd" clip-rule="evenodd" d="M22.5 44C34.6503 44 44.5 34.1503 44.5 22C44.5 9.84974 34.6503 0 22.5 0C10.3497 0 0.5 9.84974 0.5 22C0.5 34.1503 10.3497 44 22.5 44ZM36.2678 15.7678C37.2441 14.7915 37.2441 13.2085 36.2678 12.2322C35.2915 11.2559 33.7085 11.2559 32.7322 12.2322L18 26.9645L12.2678 21.2322C11.2915 20.2559 9.70854 20.2559 8.73223 21.2322C7.75592 22.2085 7.75592 23.7915 8.73223 24.7678L16.2322 32.2678C17.2085 33.2441 18.7915 33.2441 19.7678 32.2678L36.2678 15.7678Z" fill="#86C7D8"/>
</svg>
