<svg width="241" height="177" viewBox="0 0 241 177" fill="none" xmlns="http://www.w3.org/2000/svg">
<path d="M208.35 150.202L25.2911 145.587C21.1752 145.487 17.2421 144.069 14.2287 141.601C11.2153 139.132 9.3284 135.782 8.92141 132.177L0.0852905 55.3733C-0.149958 53.3174 0.102732 51.241 0.827346 49.2755C1.55196 47.3101 2.73271 45.4984 4.29478 43.9554C5.85685 42.4123 7.7662 41.1715 9.90186 40.3115C12.0375 39.4515 14.3529 38.9911 16.7014 38.9595L220.46 36.482C222.883 36.4531 225.285 36.8811 227.504 37.7371C229.724 38.5932 231.709 39.8573 233.327 41.4447C234.944 43.032 236.157 44.9056 236.882 46.9396C237.608 48.9735 237.83 51.1206 237.534 53.2364L225.67 137.133C225.148 140.816 223.084 144.195 219.881 146.612C216.679 149.028 212.567 150.308 208.35 150.202Z" fill="#EAF9F3"/>
<mask id="mask0_154_4105" style="mask-type:luminance" maskUnits="userSpaceOnUse" x="0" y="36" width="238" height="115">
<path d="M208.35 150.202L25.2911 145.587C21.1752 145.487 17.2421 144.069 14.2287 141.601C11.2153 139.132 9.3284 135.782 8.92141 132.177L0.0852905 55.3733C-0.149958 53.3174 0.102732 51.241 0.827346 49.2755C1.55196 47.3101 2.73271 45.4984 4.29478 43.9554C5.85685 42.4123 7.7662 41.1715 9.90186 40.3115C12.0375 39.4515 14.3529 38.9911 16.7014 38.9595L220.46 36.482C222.883 36.4531 225.285 36.8811 227.504 37.7371C229.724 38.5932 231.709 39.8573 233.327 41.4447C234.944 43.032 236.157 44.9056 236.882 46.9396C237.608 48.9735 237.83 51.1206 237.534 53.2364L225.67 137.133C225.148 140.816 223.084 144.195 219.881 146.612C216.679 149.028 212.567 150.308 208.35 150.202Z" fill="white"/>
</mask>
<g mask="url(#mask0_154_4105)">
<path d="M58.9458 164.138H-87.3253C-88.7258 164.138 -90.069 163.648 -91.0593 162.777C-92.0496 161.906 -92.6059 160.724 -92.6059 159.492V86.5285C-92.6059 85.2964 -92.0496 84.1149 -91.0593 83.2437C-90.069 82.3725 -88.7258 81.8831 -87.3253 81.8831H58.9458C60.3463 81.8831 61.6894 82.3725 62.6797 83.2437C63.67 84.1149 64.2263 85.2964 64.2263 86.5285V159.492C64.2263 160.724 63.67 161.906 62.6797 162.777C61.6894 163.648 60.3463 164.138 58.9458 164.138Z" stroke="#9DD3E1" stroke-width="1.8" stroke-linecap="round" stroke-linejoin="round"/>
<path d="M252.249 159.245H104.711C103.31 159.245 101.967 158.755 100.977 157.884C99.9863 157.013 99.43 155.831 99.43 154.599V47.9716C99.43 46.7395 99.9863 45.558 100.977 44.6868C101.967 43.8156 103.31 43.3262 104.711 43.3262H252.249C253.649 43.3262 254.993 43.8156 255.983 44.6868C256.973 45.558 257.53 46.7395 257.53 47.9716V154.599C257.53 155.831 256.973 157.013 255.983 157.884C254.993 158.755 253.649 159.245 252.249 159.245Z" stroke="#9DD3E1" stroke-width="1.8" stroke-linecap="round" stroke-linejoin="round"/>
<path d="M23.8829 60.0806H-7.76514V57.3243H23.8829C23.9663 57.3239 24.0489 57.3381 24.126 57.3659C24.2031 57.3938 24.2731 57.4349 24.3321 57.4867C24.391 57.5385 24.4376 57.6002 24.4693 57.668C24.501 57.7358 24.5171 57.8085 24.5166 57.8818V59.4922C24.5204 59.5678 24.5068 59.6432 24.4768 59.7141C24.4467 59.7849 24.4008 59.8497 24.3416 59.9047C24.2825 59.9596 24.2114 60.0034 24.1326 60.0337C24.0538 60.0639 23.9689 60.0799 23.8829 60.0806Z" stroke="#9DD3E1" stroke-width="1.8" stroke-linecap="round" stroke-linejoin="round"/>
<path d="M18.1448 57.3243H10.9984C10.6261 57.3251 10.2663 57.2058 9.98735 56.9889C9.70835 56.772 9.52949 56.4726 9.48468 56.1474L8.92142 51.6878C8.89819 51.5007 8.92002 51.3113 8.98548 51.1321C9.05094 50.9528 9.15857 50.7877 9.30136 50.6475C9.44416 50.5073 9.61892 50.3951 9.81426 50.3182C10.0096 50.2413 10.2212 50.2015 10.4352 50.2013H18.708C18.9219 50.202 19.1332 50.2421 19.3283 50.3192C19.5233 50.3962 19.6979 50.5084 19.8405 50.6485C19.9832 50.7886 20.0909 50.9536 20.1566 51.1326C20.2222 51.3116 20.2445 51.5008 20.2218 51.6878L19.6585 56.1474C19.6137 56.4726 19.4349 56.772 19.1559 56.9889C18.8769 57.2058 18.5171 57.3251 18.1448 57.3243Z" stroke="#9DD3E1" stroke-width="1.8" stroke-linecap="round" stroke-linejoin="round"/>
<path d="M13.7091 50.2324C13.7091 50.2324 10.8928 49.9846 10.3295 46.6399C10.3295 46.6399 12.8642 47.2903 13.6739 48.8697C13.6739 48.8697 14.0259 45.3392 15.9269 44.9985C15.9269 44.9985 16.7718 47.6309 15.4341 48.9316C15.4341 48.9316 16.455 47.4451 19.06 47.4761C18.8139 48.1283 18.3901 48.7177 17.8255 49.1927C17.261 49.6678 16.5729 50.0141 15.8213 50.2014" fill="#9DD3E1"/>
<path d="M206.731 75.8132H199.584C199.212 75.814 198.852 75.6947 198.573 75.4778C198.294 75.2609 198.115 74.9615 198.071 74.6363L197.507 70.1767C197.484 69.9896 197.506 69.8002 197.571 69.621C197.637 69.4417 197.744 69.2766 197.887 69.1364C198.03 68.9962 198.205 68.884 198.4 68.8071C198.596 68.7302 198.807 68.6904 199.021 68.6902H207.294C207.508 68.6909 207.719 68.731 207.914 68.8081C208.109 68.8851 208.284 68.9973 208.426 69.1374C208.569 69.2775 208.677 69.4424 208.742 69.6215C208.808 69.8005 208.83 69.9897 208.808 70.1767L208.244 74.6363C208.193 74.9591 208.012 75.2551 207.735 75.471C207.457 75.6868 207.101 75.8081 206.731 75.8132Z" stroke="#9DD3E1" stroke-width="1.8" stroke-linecap="round" stroke-linejoin="round"/>
<path d="M202.33 68.6901C202.33 68.6901 199.514 68.4424 198.951 65.0977C198.951 65.0977 201.485 65.748 202.295 67.3275C202.295 67.3275 202.647 63.797 204.548 63.4563C204.548 63.4563 205.393 66.0887 204.055 67.3894C204.055 67.3894 205.076 65.9029 207.681 65.9339C207.435 66.5861 207.011 67.1754 206.447 67.6505C205.882 68.1255 205.194 68.4718 204.442 68.6592" fill="#9DD3E1"/>
<path d="M57.8193 97.2749H26.0656C25.6743 97.2725 25.2998 97.1347 25.0231 96.8913C24.7465 96.6479 24.5898 96.3184 24.587 95.9742V87.4886C24.5898 87.1444 24.7465 86.8149 25.0231 86.5715C25.2998 86.3281 25.6743 86.1903 26.0656 86.1879H57.8193C58.2106 86.1903 58.585 86.3281 58.8617 86.5715C59.1384 86.8149 59.2951 87.1444 59.2978 87.4886V95.9742C59.3027 96.1462 59.2677 96.3172 59.1951 96.4769C59.1225 96.6367 59.0138 96.7818 58.8755 96.9034C58.7372 97.025 58.5723 97.1207 58.3908 97.1846C58.2092 97.2484 58.0148 97.2792 57.8193 97.2749Z" stroke="#9DD3E1" stroke-width="1.8" stroke-linecap="round" stroke-linejoin="round"/>
<path d="M45.6036 89.1918H38.2812C38.1423 89.1886 38.01 89.1387 37.9118 89.0522C37.8135 88.9658 37.7567 88.8495 37.7532 88.7272C37.7567 88.605 37.8135 88.4887 37.9118 88.4022C38.01 88.3158 38.1423 88.2658 38.2812 88.2627H45.6036C45.7425 88.2658 45.8748 88.3158 45.973 88.4022C46.0713 88.4887 46.1281 88.605 46.1316 88.7272C46.1281 88.8495 46.0713 88.9658 45.973 89.0522C45.8748 89.1387 45.7425 89.1886 45.6036 89.1918Z" fill="#9DD3E1"/>
<path d="M57.8193 111.459H26.0656C25.6743 111.456 25.2998 111.319 25.0231 111.075C24.7465 110.832 24.5898 110.502 24.587 110.158V101.673C24.5898 101.328 24.7465 100.999 25.0231 100.755C25.2998 100.512 25.6743 100.374 26.0656 100.372H57.8193C58.2106 100.374 58.585 100.512 58.8617 100.755C59.1384 100.999 59.2951 101.328 59.2978 101.673V110.158C59.3027 110.33 59.2677 110.501 59.1951 110.661C59.1225 110.821 59.0138 110.966 58.8755 111.087C58.7372 111.209 58.5723 111.305 58.3908 111.369C58.2092 111.432 58.0148 111.463 57.8193 111.459Z" stroke="#9DD3E1" stroke-width="1.8" stroke-linecap="round" stroke-linejoin="round"/>
<path d="M45.6036 103.376H38.2812C38.1423 103.373 38.01 103.323 37.9118 103.236C37.8135 103.15 37.7567 103.034 37.7532 102.911C37.7567 102.789 37.8135 102.673 37.9118 102.586C38.01 102.5 38.1423 102.45 38.2812 102.447H45.6036C45.7425 102.45 45.8748 102.5 45.973 102.586C46.0713 102.673 46.1281 102.789 46.1316 102.911C46.1281 103.034 46.0713 103.15 45.973 103.236C45.8748 103.323 45.7425 103.373 45.6036 103.376Z" fill="#9DD3E1"/>
<path d="M220.883 121.493H189.129C188.738 121.49 188.363 121.353 188.086 121.109C187.81 120.866 187.653 120.536 187.65 120.192V111.707C187.653 111.362 187.81 111.033 188.086 110.789C188.363 110.546 188.738 110.408 189.129 110.406H220.883C221.274 110.408 221.648 110.546 221.925 110.789C222.202 111.033 222.358 111.362 222.361 111.707V120.192C222.366 120.364 222.331 120.535 222.258 120.695C222.186 120.855 222.077 121 221.939 121.121C221.8 121.243 221.636 121.339 221.454 121.403C221.272 121.466 221.078 121.497 220.883 121.493Z" stroke="#9DD3E1" stroke-width="1.8" stroke-linecap="round" stroke-linejoin="round"/>
<path d="M208.667 113.379H201.345C201.206 113.376 201.073 113.326 200.975 113.239C200.877 113.153 200.82 113.037 200.816 112.914C200.82 112.792 200.877 112.676 200.975 112.589C201.073 112.503 201.206 112.453 201.345 112.45H208.667C208.806 112.453 208.938 112.503 209.036 112.589C209.135 112.676 209.191 112.792 209.195 112.914C209.196 112.976 209.184 113.037 209.158 113.094C209.132 113.151 209.093 113.202 209.043 113.246C208.994 113.289 208.935 113.323 208.871 113.346C208.806 113.369 208.737 113.38 208.667 113.379Z" fill="#9DD3E1"/>
<path d="M180.117 121.493H148.363C147.972 121.49 147.597 121.353 147.321 121.109C147.044 120.866 146.887 120.536 146.884 120.192V111.707C146.887 111.362 147.044 111.033 147.321 110.789C147.597 110.546 147.972 110.408 148.363 110.406H180.117C180.508 110.408 180.882 110.546 181.159 110.789C181.436 111.033 181.592 111.362 181.595 111.707V120.192C181.592 120.536 181.436 120.866 181.159 121.109C180.882 121.353 180.508 121.49 180.117 121.493Z" stroke="#9DD3E1" stroke-width="1.8" stroke-linecap="round" stroke-linejoin="round"/>
<path d="M167.901 113.379H160.579C160.44 113.376 160.308 113.326 160.209 113.239C160.111 113.153 160.054 113.037 160.051 112.914C160.054 112.792 160.111 112.676 160.209 112.589C160.308 112.503 160.44 112.453 160.579 112.45H167.901C168.04 112.453 168.172 112.503 168.27 112.589C168.369 112.676 168.426 112.792 168.429 112.914C168.431 112.976 168.418 113.037 168.392 113.094C168.366 113.151 168.327 113.202 168.278 113.246C168.228 113.289 168.17 113.323 168.105 113.346C168.04 113.369 167.971 113.38 167.901 113.379Z" fill="#9DD3E1"/>
<path d="M139.069 121.493H107.316C106.924 121.49 106.55 121.353 106.273 121.109C105.996 120.866 105.84 120.536 105.837 120.192V111.707C105.84 111.362 105.996 111.033 106.273 110.789C106.55 110.546 106.924 110.408 107.316 110.406H139.069C139.461 110.408 139.835 110.546 140.112 110.789C140.388 111.033 140.545 111.362 140.548 111.707V120.192C140.553 120.364 140.518 120.535 140.445 120.695C140.373 120.855 140.264 121 140.126 121.121C139.987 121.243 139.822 121.339 139.641 121.403C139.459 121.466 139.265 121.497 139.069 121.493Z" stroke="#9DD3E1" stroke-width="1.8" stroke-linecap="round" stroke-linejoin="round"/>
<path d="M126.854 113.379H119.531C119.392 113.376 119.26 113.326 119.162 113.239C119.064 113.153 119.007 113.037 119.003 112.914C119.007 112.792 119.064 112.676 119.162 112.589C119.26 112.503 119.392 112.453 119.531 112.45H126.854C126.993 112.453 127.125 112.503 127.223 112.589C127.321 112.676 127.378 112.792 127.382 112.914C127.383 112.976 127.37 113.037 127.344 113.094C127.318 113.151 127.28 113.202 127.23 113.246C127.181 113.289 127.122 113.323 127.057 113.346C126.993 113.369 126.923 113.38 126.854 113.379Z" fill="#9DD3E1"/>
<path d="M17.3351 97.2749H-14.4186C-14.8099 97.2725 -15.1844 97.1347 -15.461 96.8913C-15.7377 96.6479 -15.8944 96.3184 -15.8972 95.9742V87.4886C-15.8944 87.1444 -15.7377 86.8149 -15.461 86.5715C-15.1844 86.3281 -14.8099 86.1903 -14.4186 86.1879H17.3351C17.7264 86.1903 18.1008 86.3281 18.3775 86.5715C18.6542 86.8149 18.8109 87.1444 18.8136 87.4886V95.9742C18.8185 96.1462 18.7835 96.3172 18.7109 96.4769C18.6383 96.6367 18.5296 96.7818 18.3913 96.9034C18.2531 97.025 18.0881 97.1207 17.9066 97.1846C17.725 97.2484 17.5306 97.2792 17.3351 97.2749Z" stroke="#9DD3E1" stroke-width="1.8" stroke-linecap="round" stroke-linejoin="round"/>
<path d="M5.1194 89.1918H-2.20296C-2.34189 89.1886 -2.47414 89.1387 -2.57241 89.0522C-2.67068 88.9658 -2.72745 88.8495 -2.73102 88.7272C-2.72745 88.605 -2.67068 88.4887 -2.57241 88.4022C-2.47414 88.3158 -2.34189 88.2658 -2.20296 88.2627H5.1194C5.25832 88.2658 5.39057 88.3158 5.48884 88.4022C5.58711 88.4887 5.64389 88.605 5.64745 88.7272C5.64889 88.7886 5.63622 88.8496 5.61019 88.9065C5.58416 88.9634 5.54532 89.0151 5.49599 89.0585C5.44667 89.1019 5.38788 89.1361 5.32316 89.159C5.25845 89.1819 5.18914 89.193 5.1194 89.1918Z" fill="#9DD3E1"/>
<path d="M17.3351 111.459H-14.4186C-14.8099 111.456 -15.1844 111.319 -15.461 111.075C-15.7377 110.832 -15.8944 110.502 -15.8972 110.158V101.673C-15.8944 101.328 -15.7377 100.999 -15.461 100.755C-15.1844 100.512 -14.8099 100.374 -14.4186 100.372H17.3351C17.7264 100.374 18.1008 100.512 18.3775 100.755C18.6542 100.999 18.8109 101.328 18.8136 101.673V110.158C18.8185 110.33 18.7835 110.501 18.7109 110.661C18.6383 110.821 18.5296 110.966 18.3913 111.087C18.2531 111.209 18.0881 111.305 17.9066 111.369C17.725 111.432 17.5306 111.463 17.3351 111.459Z" stroke="#9DD3E1" stroke-width="1.8" stroke-linecap="round" stroke-linejoin="round"/>
<path d="M5.1194 103.376H-2.20296C-2.34189 103.373 -2.47414 103.323 -2.57241 103.236C-2.67068 103.15 -2.72745 103.034 -2.73102 102.911C-2.72745 102.789 -2.67068 102.673 -2.57241 102.586C-2.47414 102.5 -2.34189 102.45 -2.20296 102.447H5.1194C5.25832 102.45 5.39057 102.5 5.48884 102.586C5.58711 102.673 5.64389 102.789 5.64745 102.911C5.64889 102.973 5.63622 103.034 5.61019 103.091C5.58416 103.148 5.54532 103.199 5.49599 103.243C5.44667 103.286 5.38788 103.32 5.32316 103.343C5.25845 103.366 5.18914 103.377 5.1194 103.376Z" fill="#9DD3E1"/>
<path d="M267.105 75.8132H106.928C106.5 75.8091 106.091 75.6578 105.788 75.3915C105.486 75.1252 105.314 74.7652 105.309 74.3886V49.706C105.314 49.3294 105.486 48.9694 105.788 48.7031C106.091 48.4368 106.5 48.2854 106.928 48.2814H267.105C267.533 48.2854 267.942 48.4368 268.245 48.7031C268.548 48.9694 268.72 49.3294 268.724 49.706V74.3886C268.725 74.5758 268.683 74.7612 268.602 74.9342C268.521 75.1073 268.402 75.2645 268.251 75.3968C268.101 75.5292 267.922 75.6341 267.725 75.7056C267.529 75.777 267.318 75.8136 267.105 75.8132Z" stroke="#9DD3E1" stroke-width="1.8" stroke-linecap="round" stroke-linejoin="round"/>
<path d="M267.105 106.442H106.928C106.5 106.438 106.091 106.286 105.788 106.02C105.486 105.754 105.314 105.394 105.309 105.017V80.3346C105.314 79.9581 105.486 79.598 105.788 79.3317C106.091 79.0654 106.5 78.9141 106.928 78.91H267.105C267.533 78.9141 267.942 79.0654 268.245 79.3317C268.548 79.598 268.72 79.9581 268.724 80.3346V105.017C268.725 105.204 268.683 105.39 268.602 105.563C268.521 105.736 268.402 105.893 268.251 106.025C268.101 106.158 267.922 106.263 267.725 106.334C267.529 106.406 267.318 106.442 267.105 106.442Z" stroke="#9DD3E1" stroke-width="1.8" stroke-linecap="round" stroke-linejoin="round"/>
<path d="M119.602 60.2043H116.117V75.782H119.602V60.2043Z" stroke="#9DD3E1" stroke-width="1.8" stroke-linecap="round" stroke-linejoin="round"/>
<path d="M123.192 64.4783H119.566V75.8131H123.192V64.4783Z" stroke="#9DD3E1" stroke-width="1.8" stroke-linecap="round" stroke-linejoin="round"/>
<path d="M224.614 90.8333H221.129V106.411H224.614V90.8333Z" stroke="#9DD3E1" stroke-width="1.8" stroke-linecap="round" stroke-linejoin="round"/>
<path d="M228.24 95.076H224.614V106.411H228.24V95.076Z" stroke="#9DD3E1" stroke-width="1.8" stroke-linecap="round" stroke-linejoin="round"/>
<path d="M217.538 90.8333H214.053V106.411H217.538V90.8333Z" stroke="#9DD3E1" stroke-width="1.8" stroke-linecap="round" stroke-linejoin="round"/>
<path d="M210.769 90.448L205.439 105.303L208.762 106.226L214.093 91.371L210.769 90.448Z" stroke="#9DD3E1" stroke-width="1.8" stroke-linecap="round" stroke-linejoin="round"/>
<path d="M221.164 95.076H217.538V106.411H221.164V95.076Z" stroke="#9DD3E1" stroke-width="1.8" stroke-linecap="round" stroke-linejoin="round"/>
<path d="M177.617 60.2043H174.132V75.782H177.617V60.2043Z" stroke="#9DD3E1" stroke-width="1.8" stroke-linecap="round" stroke-linejoin="round"/>
<path d="M181.243 64.4783H177.617V75.8131H181.243V64.4783Z" stroke="#9DD3E1" stroke-width="1.8" stroke-linecap="round" stroke-linejoin="round"/>
<path d="M143.188 60.2043H139.703V75.782H143.188V60.2043Z" stroke="#9DD3E1" stroke-width="1.8" stroke-linecap="round" stroke-linejoin="round"/>
<path d="M136.421 59.8485L131.09 74.7035L134.414 75.6265L139.744 60.7715L136.421 59.8485Z" stroke="#9DD3E1" stroke-width="1.8" stroke-linecap="round" stroke-linejoin="round"/>
<path d="M146.814 64.4783H143.188V75.8131H146.814V64.4783Z" stroke="#9DD3E1" stroke-width="1.8" stroke-linecap="round" stroke-linejoin="round"/>
<path d="M224.579 62.2484L224.966 57.6339C224.974 57.5617 224.964 57.4889 224.937 57.4203C224.91 57.3518 224.867 57.289 224.81 57.2363C224.753 57.1836 224.685 57.1421 224.608 57.1145C224.532 57.0869 224.45 57.074 224.368 57.0765H221.34C221.259 57.0768 221.178 57.0917 221.103 57.1202C221.029 57.1487 220.961 57.1903 220.905 57.2424C220.849 57.2946 220.806 57.3561 220.778 57.4234C220.75 57.4907 220.737 57.5623 220.742 57.6339L221.129 62.2484C221.129 62.2484 217.961 64.0446 217.996 65.5311C218.031 66.677 218.806 72.1586 219.158 74.5742C219.202 74.8994 219.381 75.1988 219.66 75.4157C219.939 75.6326 220.299 75.7519 220.671 75.751H225.037C225.409 75.7519 225.769 75.6326 226.048 75.4157C226.327 75.1988 226.506 74.8994 226.55 74.5742C226.902 72.1586 227.677 66.677 227.712 65.5311C227.747 64.0446 224.579 62.2484 224.579 62.2484Z" fill="#9DD3E1"/>
<path d="M189.305 92.9392L189.692 88.3247C189.7 88.2525 189.69 88.1797 189.663 88.1111C189.636 88.0426 189.593 87.9798 189.536 87.9271C189.479 87.8744 189.411 87.8328 189.334 87.8053C189.258 87.7777 189.176 87.7648 189.094 87.7673H186.066C185.985 87.7676 185.904 87.7825 185.829 87.811C185.755 87.8395 185.687 87.8811 185.631 87.9332C185.575 87.9853 185.532 88.0469 185.504 88.1142C185.476 88.1815 185.463 88.2531 185.468 88.3247L185.855 92.9392C185.855 92.9392 182.687 94.7354 182.722 96.2219C182.757 97.3678 183.531 102.849 183.884 105.265C183.928 105.59 184.107 105.89 184.386 106.106C184.665 106.323 185.025 106.443 185.397 106.442H189.763C190.135 106.443 190.495 106.323 190.774 106.106C191.053 105.89 191.231 105.59 191.276 105.265C191.628 102.849 192.403 97.3678 192.438 96.2219C192.473 94.7354 189.305 92.9392 189.305 92.9392Z" fill="#9DD3E1"/>
<path d="M-0.44278 138.774H336.034" stroke="#9DD3E1" stroke-width="1.8" stroke-linecap="round" stroke-linejoin="round"/>
<path d="M37.6124 81.883H11.0336C10.4647 81.8813 9.91954 81.6818 9.51722 81.3279C9.1149 80.9739 8.88806 80.4944 8.8862 79.9938V75.1007C8.88806 74.6002 9.1149 74.1206 9.51722 73.7667C9.91954 73.4127 10.4647 73.2132 11.0336 73.2115H37.6124C38.1813 73.2132 38.7265 73.4127 39.1288 73.7667C39.5311 74.1206 39.7579 74.6002 39.7598 75.1007V79.9938C39.7617 80.2424 39.7074 80.4888 39.6001 80.7187C39.4929 80.9487 39.3348 81.1576 39.135 81.3333C38.9352 81.5091 38.6978 81.6482 38.4364 81.7425C38.175 81.8369 37.8949 81.8846 37.6124 81.883Z" stroke="#9DD3E1" stroke-width="1.8" stroke-linecap="round" stroke-linejoin="round"/>
<path d="M11.5265 74.6362H11.8433" stroke="#9DD3E1" stroke-width="1.8" stroke-linecap="round" stroke-linejoin="round"/>
<path d="M34.7608 79.5294H13.9203C13.9203 79.1187 14.1057 78.7248 14.4358 78.4344C14.7659 78.144 15.2136 77.9809 15.6805 77.9809H32.9655C33.1996 77.9768 33.4322 78.0138 33.6499 78.0898C33.8675 78.1657 34.0657 78.2791 34.2329 78.4233C34.4001 78.5675 34.5329 78.7396 34.6236 78.9296C34.7142 79.1195 34.7609 79.3234 34.7608 79.5294Z" stroke="#9DD3E1" stroke-width="1.8" stroke-linecap="round" stroke-linejoin="round"/>
<path d="M31.839 66.5842H16.8422V73.2427H31.839V66.5842Z" stroke="#9DD3E1" stroke-width="1.8" stroke-linecap="round" stroke-linejoin="round"/>
</g>
<path d="M145.371 95.6955L131.501 91.0501C131.31 90.9843 131.148 90.869 131.035 90.7195C130.921 90.57 130.863 90.3936 130.867 90.2139L153.116 87.3647C153.116 87.3647 155.861 91.4217 155.58 91.5146C155.298 91.6076 145.371 95.6955 145.371 95.6955Z" fill="#22272E"/>
<path d="M130.867 90.2446L145.723 94.8281L154.242 91.2046C154.242 91.2046 152.376 87.5193 152.165 87.5502C151.954 87.5812 130.867 90.2446 130.867 90.2446Z" fill="#63737A"/>
<path d="M145.089 94.9211L149.947 76.773C150.068 76.3461 150.343 75.965 150.73 75.6861C151.116 75.4072 151.595 75.2453 152.095 75.2245L174.379 74.698C174.513 74.6956 174.646 74.7208 174.767 74.7716C174.888 74.8225 174.994 74.8976 175.076 74.9909C175.158 75.0843 175.214 75.1932 175.24 75.3091C175.265 75.4249 175.26 75.5445 175.223 75.6581L170.682 89.5943C170.57 89.9342 170.358 90.242 170.068 90.4867C169.777 90.7314 169.418 90.9043 169.028 90.9879L146.145 95.8192C146.002 95.8572 145.85 95.8608 145.704 95.8298C145.559 95.7988 145.425 95.7342 145.318 95.6427C145.21 95.5511 145.132 95.436 145.092 95.3092C145.052 95.1823 145.051 95.0484 145.089 94.9211Z" fill="#22272E"/>
<path d="M163.644 84.0927C163.97 83.1075 163.66 82.1614 162.951 81.9794C162.242 81.7974 161.402 82.4485 161.075 83.4337C160.749 84.4189 161.059 85.3651 161.768 85.547C162.477 85.729 163.317 85.0779 163.644 84.0927Z" fill="#63737A"/>
<path d="M180.504 65.5312L129.529 63.0227C129.222 63.0077 128.921 62.9382 128.645 62.8184C128.369 62.6987 128.123 62.5311 127.923 62.3257C127.722 62.1204 127.571 61.8815 127.478 61.6234C127.385 61.3653 127.352 61.0934 127.382 60.8239L131.747 21.6476C131.821 21.0239 132.138 20.442 132.645 20.0014C133.153 19.5609 133.818 19.2889 134.528 19.232L187.967 15.6395C188.306 15.6148 188.646 15.6574 188.963 15.7641C189.28 15.8709 189.566 16.039 189.799 16.2561C190.033 16.4733 190.208 16.7338 190.311 17.0184C190.414 17.303 190.443 17.6044 190.396 17.9003L183.707 63.2085C183.599 63.8773 183.21 64.4863 182.617 64.916C182.025 65.3456 181.271 65.5651 180.504 65.5312Z" fill="#63737A"/>
<path d="M179.096 65.5312L127.875 63.0227C127.566 63.0102 127.264 62.9425 126.987 62.8236C126.709 62.7046 126.462 62.537 126.261 62.3311C126.06 62.1252 125.909 61.8852 125.817 61.626C125.725 61.3668 125.695 61.0938 125.727 60.8238L130.092 21.4617C130.162 20.8314 130.483 20.243 130.998 19.8009C131.514 19.3588 132.191 19.0914 132.909 19.0461L186.594 15.4227C186.934 15.4 187.274 15.4438 187.592 15.5507C187.91 15.6577 188.197 15.8253 188.433 16.0414C188.668 16.2575 188.847 16.5168 188.955 16.8007C189.063 17.0846 189.098 17.3861 189.058 17.6834L182.335 63.2085C182.207 63.8754 181.808 64.4788 181.212 64.9061C180.616 65.3334 179.864 65.5556 179.096 65.5312Z" fill="#22272E"/>
<path d="M178.145 46.1135L177.406 51.2234L170.154 51.0996L170.823 46.0825L178.145 46.1135Z" fill="white"/>
<path d="M163.571 46.0513L162.902 50.9754L155.509 50.8825L156.108 46.0513H163.571Z" fill="#F4C2C9"/>
<path d="M170.154 51.0995L169.45 56.0855L162.233 55.8687L162.902 50.9756L170.154 51.0995Z" fill="#B0D7C0"/>
<path d="M141.041 23.9081L135.021 24.2178C134.918 24.217 134.82 24.1808 134.748 24.1171C134.676 24.0534 134.635 23.9672 134.634 23.8771L134.739 22.979C134.761 22.8544 134.827 22.7391 134.928 22.65C135.03 22.5609 135.161 22.5025 135.302 22.4835L141.357 22.1428C141.41 22.138 141.463 22.1434 141.512 22.1588C141.562 22.1742 141.606 22.1992 141.644 22.2318C141.681 22.2645 141.709 22.304 141.727 22.3476C141.744 22.3911 141.75 22.4376 141.745 22.4835L141.639 23.4126C141.616 23.5418 141.544 23.6605 141.436 23.7501C141.328 23.8398 141.189 23.8954 141.041 23.9081Z" fill="#63737A"/>
<path d="M144.843 34.5928L134.211 34.8715C134.108 34.872 134.006 34.8533 133.911 34.8168C133.816 34.7803 133.732 34.7268 133.662 34.6597C133.592 34.5926 133.539 34.5134 133.507 34.4272C133.474 34.341 133.462 34.2497 133.472 34.1592L134.035 29.2661C134.058 29.0624 134.163 28.8725 134.331 28.7306C134.498 28.5888 134.718 28.5041 134.95 28.4918L145.652 28.0273C145.757 28.0216 145.862 28.0367 145.96 28.0714C146.057 28.1061 146.145 28.1596 146.216 28.2279C146.287 28.2962 146.339 28.3776 146.37 28.4662C146.4 28.5547 146.408 28.6482 146.392 28.7396L145.758 33.8186C145.741 34.0242 145.638 34.217 145.469 34.3599C145.3 34.5028 145.077 34.5857 144.843 34.5928Z" fill="#B0D7C0"/>
<path d="M161.248 34.1591L149.595 34.4688C149.492 34.4692 149.39 34.4506 149.295 34.4141C149.2 34.3776 149.116 34.3241 149.046 34.257C148.976 34.1899 148.923 34.1107 148.891 34.0245C148.858 33.9383 148.846 33.847 148.856 33.7565L149.49 28.5846C149.513 28.3809 149.617 28.1911 149.785 28.0492C149.953 27.9073 150.173 27.8227 150.405 27.8104L162.163 27.3149C162.268 27.3092 162.373 27.3243 162.47 27.359C162.568 27.3937 162.655 27.4472 162.726 27.5155C162.797 27.5838 162.85 27.6652 162.88 27.7538C162.911 27.8423 162.918 27.9358 162.902 28.0272L162.198 33.3849C162.167 33.5912 162.055 33.7816 161.882 33.923C161.708 34.0644 161.484 34.1479 161.248 34.1591Z" fill="#DC2626"/>
<path d="M179.096 33.6947L166.246 34.0353C166.142 34.0382 166.039 34.0213 165.943 33.9857C165.847 33.95 165.761 33.8965 165.69 33.8289C165.62 33.7612 165.567 33.6809 165.536 33.5936C165.504 33.5063 165.494 33.414 165.507 33.323L166.246 27.8724C166.275 27.6707 166.382 27.4839 166.549 27.343C166.715 27.2021 166.932 27.1157 167.162 27.0982L180.081 26.5407C180.186 26.535 180.291 26.5501 180.389 26.5848C180.486 26.6195 180.574 26.673 180.645 26.7413C180.716 26.8096 180.768 26.8911 180.799 26.9796C180.829 27.0682 180.837 27.1616 180.821 27.253L180.011 32.9204C179.988 33.1241 179.883 33.314 179.715 33.4559C179.548 33.5977 179.328 33.6824 179.096 33.6947Z" fill="#F4C2C9"/>
<path d="M147.553 60.3593L174.238 61.4123C174.702 61.4237 175.156 61.2851 175.513 61.0227C175.869 60.7603 176.104 60.3921 176.174 59.9877L179.131 39.4859C179.166 39.2545 179.144 39.019 179.066 38.7959C178.987 38.5727 178.855 38.3672 178.678 38.1935C178.5 38.0197 178.282 37.8819 178.038 37.7896C177.794 37.6973 177.531 37.6527 177.265 37.6588L149.982 38.1233C149.53 38.1334 149.096 38.2858 148.761 38.5528C148.425 38.8198 148.209 39.1838 148.152 39.5789L145.793 58.5631C145.766 58.7841 145.792 59.0076 145.867 59.2197C145.942 59.4318 146.066 59.6282 146.231 59.7965C146.396 59.9648 146.599 60.1016 146.826 60.1984C147.053 60.2952 147.301 60.35 147.553 60.3593Z" stroke="#63737A" stroke-width="1.8" stroke-linecap="round" stroke-linejoin="round"/>
<path d="M147.905 41.2513L178.885 40.9725" stroke="#63737A" stroke-width="1.8" stroke-linecap="round" stroke-linejoin="round"/>
<path d="M156.741 41.3752L154.242 60.6073" stroke="#63737A" stroke-width="1.8" stroke-linecap="round" stroke-linejoin="round"/>
<path d="M164.205 41.3132L161.564 60.9169" stroke="#63737A" stroke-width="1.8" stroke-linecap="round" stroke-linejoin="round"/>
<path d="M171.492 41.2822L168.746 61.1956" stroke="#63737A" stroke-width="1.8" stroke-linecap="round" stroke-linejoin="round"/>
<path d="M156.143 46.0513L178.145 46.1132" stroke="#63737A" stroke-width="1.8" stroke-linecap="round" stroke-linejoin="round"/>
<path d="M155.509 50.8826L177.406 51.2232" stroke="#63737A" stroke-width="1.8" stroke-linecap="round" stroke-linejoin="round"/>
<path d="M154.876 55.683L176.667 56.2714" stroke="#63737A" stroke-width="1.8" stroke-linecap="round" stroke-linejoin="round"/>
<path d="M179.307 20.8731C179.283 21.0726 179.188 21.2603 179.037 21.4102C178.885 21.5601 178.684 21.6647 178.462 21.7093C178.04 21.7403 177.758 21.3996 177.828 20.9661C177.853 20.7666 177.947 20.5789 178.099 20.429C178.25 20.2791 178.451 20.1745 178.673 20.1299C178.775 20.1308 178.876 20.1524 178.967 20.193C179.058 20.2336 179.137 20.2921 179.199 20.364C179.26 20.4358 179.302 20.5191 179.32 20.6074C179.339 20.6957 179.335 20.7867 179.307 20.8731Z" fill="#63737A"/>
<path d="M175.857 21.09C175.844 21.2896 175.753 21.4791 175.599 21.6261C175.445 21.773 175.237 21.8681 175.012 21.8952C174.59 21.9261 174.308 21.5855 174.379 21.1519C174.391 20.9522 174.482 20.7627 174.637 20.6158C174.791 20.4688 174.998 20.3737 175.223 20.3467C175.646 20.3157 175.927 20.6564 175.857 21.09Z" fill="#63737A"/>
<path d="M172.478 21.2757C172.459 21.4735 172.365 21.6601 172.212 21.806C172.059 21.9518 171.855 22.0486 171.633 22.081C171.245 22.1119 170.964 21.7713 170.999 21.3687C171.018 21.1709 171.111 20.9843 171.264 20.8384C171.417 20.6926 171.621 20.5958 171.844 20.5634C172.266 20.5015 172.513 20.8422 172.478 21.2757Z" fill="#63737A"/>
<path d="M71.0206 59.2754L38.1756 61.5672C37.1547 61.6291 36.2394 60.8239 36.169 59.7709L34.2328 33.0134C34.1624 31.9604 35.0425 31.0004 36.0634 31.0933L67.7115 33.8805C68.2176 33.9298 68.6882 34.1333 69.0418 34.4557C69.3954 34.7781 69.6097 35.199 69.6477 35.6458L72.2176 57.9747C72.246 58.1306 72.2367 58.29 72.1905 58.4425C72.1442 58.5951 72.0619 58.7373 71.949 58.86C71.8361 58.9827 71.6951 59.0832 71.5351 59.1547C71.3752 59.2263 71.1999 59.2674 71.0206 59.2754Z" fill="#D8DBEA"/>
<path d="M72.6048 59.0277L39.3725 61.3504C38.3164 61.4123 37.4011 60.6071 37.3307 59.5542L35.4297 32.6417C35.3593 31.5578 36.2746 30.5978 37.2955 30.6907L69.3308 33.447C69.841 33.4947 70.3166 33.6968 70.6761 34.0188C71.0357 34.3408 71.257 34.7626 71.3023 35.2122L73.9073 57.665C73.9287 57.9955 73.8057 58.3206 73.5636 58.5739C73.3215 58.8272 72.9785 58.9895 72.6048 59.0277Z" fill="#DC2626"/>
<path d="M50.6729 55.8996L43.0689 56.2093C42.7908 56.2038 42.5258 56.1042 42.3291 55.9311C42.1324 55.758 42.0191 55.5249 42.0128 55.2802L40.6047 37.1012C40.5695 36.6057 40.9919 36.1412 41.4848 36.1721L48.9832 36.6367C49.2343 36.6617 49.4663 36.767 49.635 36.9326C49.8037 37.0981 49.8975 37.3124 49.8985 37.5348L51.4826 55.0015C51.504 55.2139 51.4319 55.4255 51.2813 55.5926C51.1306 55.7596 50.9129 55.8695 50.6729 55.8996Z" fill="#22272E"/>
<path d="M51.3418 55.621L43.7026 55.9617C43.4244 55.9562 43.1595 55.8565 42.9627 55.6835C42.766 55.5104 42.6527 55.2773 42.6465 55.0326L41.2383 36.7916C41.2031 36.2961 41.6256 35.8316 42.1184 35.8626L49.652 36.3271C49.9031 36.3521 50.1351 36.4574 50.3038 36.623C50.4726 36.7885 50.5663 37.0028 50.5673 37.2252L52.1514 54.7539C52.1669 54.9618 52.0918 55.1672 51.9414 55.3282C51.791 55.4893 51.5766 55.594 51.3418 55.621Z" fill="#6DAFA7"/>
<path d="M45.1107 37.256L46.2725 37.3179" stroke="#22272E" stroke-width="1.8" stroke-linecap="round" stroke-linejoin="round"/>
<path d="M46.9061 37.3489H47.0123" stroke="#22272E" stroke-width="1.8" stroke-linecap="round" stroke-linejoin="round"/>
<path d="M41.3439 38.2161L50.7081 38.6806" stroke="#22272E" stroke-width="1.8" stroke-linecap="round" stroke-linejoin="round"/>
<path d="M42.5409 53.6081L52.0107 53.3293" stroke="#22272E" stroke-width="1.8" stroke-linecap="round" stroke-linejoin="round"/>
<path d="M66.6554 37.566L59.2626 37.0705C59.1582 37.0607 59.0526 37.0716 58.9536 37.1024C58.8546 37.1332 58.7647 37.1831 58.6904 37.2484C58.6161 37.3138 58.5595 37.3929 58.5245 37.48C58.4895 37.5671 58.477 37.6599 58.4881 37.7518L58.7345 40.2913C58.7484 40.4486 58.8281 40.5958 58.9581 40.7045C59.0881 40.8132 59.2593 40.8756 59.4386 40.8797L66.8314 41.1275C66.9379 41.1334 67.0446 41.1188 67.1441 41.0847C67.2435 41.0506 67.3333 40.9977 67.407 40.9299C67.4808 40.862 67.5369 40.7808 67.5712 40.6919C67.6055 40.603 67.6174 40.5085 67.6059 40.4152L67.3594 38.1234C67.3211 37.9783 67.233 37.847 67.1071 37.7473C66.9812 37.6476 66.8235 37.5843 66.6554 37.566Z" fill="#6DAFA7"/>
<path d="M61.0228 44.0694C61.03 44.1727 61.0121 44.2762 60.9705 44.373C60.9288 44.4698 60.8642 44.5577 60.781 44.6309C60.6978 44.7041 60.5979 44.7609 60.4878 44.7976C60.3778 44.8343 60.2601 44.85 60.1427 44.8436C59.8853 44.8456 59.636 44.7649 59.4416 44.6167C59.2471 44.4684 59.1209 44.2628 59.0866 44.0384C59.0805 43.9327 59.1004 43.827 59.1447 43.7286C59.1891 43.6302 59.257 43.5412 59.3437 43.4679C59.4305 43.3945 59.5341 43.3383 59.6477 43.3032C59.7612 43.268 59.882 43.2547 60.0019 43.2642C60.2531 43.2696 60.4939 43.3536 60.6811 43.5012C60.8682 43.6488 60.9893 43.8503 61.0228 44.0694Z" fill="#6DAFA7"/>
<path d="M62.6422 44.1005L67.6763 44.1624" stroke="#63737A" stroke-width="1.8" stroke-linecap="round" stroke-linejoin="round"/>
<path d="M61.3044 46.7948C61.3097 46.8992 61.2908 47.0034 61.2488 47.1011C61.2069 47.1989 61.1429 47.2881 61.0606 47.3634C60.9783 47.4387 60.8794 47.4985 60.7701 47.5392C60.6607 47.5798 60.5431 47.6006 60.4243 47.6C60.1722 47.6031 59.9272 47.5268 59.7335 47.3848C59.5398 47.2428 59.4102 47.0445 59.3682 46.8258C59.3611 46.7184 59.3798 46.6109 59.4233 46.5104C59.4667 46.4098 59.5339 46.3185 59.6204 46.2424C59.7068 46.1664 59.8106 46.1073 59.9249 46.069C60.0392 46.0308 60.1614 46.0143 60.2835 46.0206C60.5312 46.0198 60.7708 46.0977 60.9583 46.24C61.1459 46.3822 61.2688 46.5792 61.3044 46.7948Z" fill="#6DAFA7"/>
<path d="M62.9238 46.7636L67.9227 46.7017" stroke="#63737A" stroke-width="1.8" stroke-linecap="round" stroke-linejoin="round"/>
<path d="M61.586 49.4891C61.5913 49.5934 61.5724 49.6976 61.5305 49.7954C61.4885 49.8931 61.4245 49.9823 61.3422 50.0576C61.2599 50.1329 61.1611 50.1927 61.0517 50.2334C60.9423 50.2741 60.8247 50.2948 60.7059 50.2943C60.4552 50.313 60.2058 50.2463 60.0093 50.108C59.8128 49.9697 59.6841 49.7704 59.6498 49.551C59.6427 49.4436 59.6614 49.3361 59.7049 49.2356C59.7484 49.135 59.8155 49.0437 59.902 48.9676C59.9885 48.8916 60.0923 48.8325 60.2066 48.7943C60.3209 48.756 60.4431 48.7395 60.5651 48.7458C60.8095 48.7373 61.0488 48.8085 61.2372 48.9457C61.4256 49.0828 61.5498 49.2763 61.586 49.4891Z" fill="#6DAFA7"/>
<path d="M63.1702 49.4273L68.1691 49.2415" stroke="#63737A" stroke-width="1.8" stroke-linecap="round" stroke-linejoin="round"/>
<path d="M55.9535 79.0029C55.4958 79.0029 57.5376 74.7292 59.6498 75.3176C61.7621 75.906 58.6289 79.0339 55.9535 79.0029Z" fill="#6DAFA7"/>
<path d="M56.1999 79.5913C56.1999 79.5913 53.9116 77.0518 51.6234 77.6402C49.3352 78.2286 52.1867 81.0778 56.1999 79.5913Z" fill="#6DAFA7"/>
<path d="M55.531 77.0518C55.531 77.0518 58.9457 71.8799 57.5024 70.6412C54.9325 68.4423 51.6938 74.9459 55.531 77.0518Z" fill="#6DAFA7"/>
<path d="M61.234 88.8201L56.2351 89.8112C55.5546 89.9456 54.842 89.8639 54.2235 89.5805C53.605 89.2971 53.1204 88.8303 52.8555 88.2627L50.5673 83.4315C50.4612 83.2113 50.4113 82.9732 50.4213 82.7342C50.4313 82.4952 50.5009 82.2611 50.6252 82.0483C50.7495 81.8356 50.9254 81.6495 51.1404 81.5032C51.3555 81.3569 51.6045 81.254 51.8698 81.2017L60.9524 79.4054C61.2165 79.3519 61.4908 79.3504 61.7557 79.4009C62.0206 79.4515 62.2696 79.5528 62.4848 79.6978C62.7 79.8427 62.8762 80.0277 63.0008 80.2395C63.1253 80.4513 63.1952 80.6847 63.2054 80.9229L63.487 86.1258C63.5539 86.7401 63.3611 87.3545 62.9455 87.8515C62.5298 88.3486 61.9205 88.6934 61.234 88.8201Z" fill="#22272E"/>
<path d="M56.5167 80.6752C56.5167 80.6752 54.9325 76.4324 55.531 74.4503" stroke="black" stroke-width="1.8" stroke-linecap="round" stroke-linejoin="round"/>
<path d="M74.3298 98.2039C74.3298 98.2039 74.1185 100.341 73.5553 101.611C72.992 102.88 72.0063 104.429 72.3232 106.566C72.64 108.703 74.9634 111.83 75.8787 111.738C76.794 111.645 76.3012 110.282 76.3012 110.282C76.3012 110.282 77.2165 111.428 78.0966 111.087C78.9767 110.747 77.7797 108.269 77.7797 108.269C77.7797 108.269 78.871 109.817 79.8567 109.632C80.8424 109.446 78.871 106.999 78.871 106.999C78.871 106.999 80.1736 108.269 80.5256 108.083C80.8777 107.897 81.1945 107.99 80.5256 106.535C79.8567 105.079 80.9481 100.341 80.9129 99.2569C80.8776 98.1729 76.09 97.2129 74.3298 98.2039Z" fill="#F4C2C9"/>
<path d="M87.3903 102.509L94.255 115.144C94.3203 115.262 94.3583 115.39 94.3671 115.521C94.3758 115.652 94.355 115.783 94.3059 115.907C94.2569 116.03 94.1804 116.144 94.0811 116.242C93.9817 116.34 93.8614 116.419 93.727 116.476L73.3441 125.519C73.2024 125.584 73.0466 125.622 72.8869 125.631C72.7273 125.639 72.5674 125.618 72.4177 125.568C72.2681 125.518 72.1321 125.441 72.0188 125.342C71.9054 125.243 71.8172 125.124 71.7599 124.992L64.1207 107.711C64.0633 107.578 64.0391 107.435 64.0497 107.292C64.0603 107.149 64.1055 107.01 64.1821 106.884C64.2588 106.758 64.3652 106.648 64.4943 106.561C64.6233 106.474 64.772 106.412 64.9304 106.38L86.0878 101.982C86.3406 101.918 86.6111 101.936 86.8501 102.033C87.0892 102.129 87.2809 102.298 87.3903 102.509Z" fill="#DC2626"/>
<path d="M77.7093 116.6L78.8358 118.984C78.8722 119.055 78.8919 119.132 78.8937 119.21C78.8956 119.288 78.8797 119.365 78.8468 119.437C78.814 119.51 78.7649 119.575 78.7025 119.631C78.6401 119.686 78.5657 119.729 78.4838 119.759L75.5971 120.905C75.5144 120.94 75.4243 120.96 75.3323 120.964C75.2404 120.968 75.1486 120.954 75.0626 120.925C74.9767 120.896 74.8986 120.852 74.833 120.795C74.7675 120.738 74.716 120.67 74.6818 120.595L73.5201 118.086C73.4872 118.013 73.4711 117.935 73.4728 117.856C73.4745 117.778 73.4939 117.7 73.5299 117.628C73.5659 117.556 73.6178 117.491 73.6826 117.437C73.7474 117.383 73.8238 117.34 73.9073 117.312L76.794 116.29C76.9634 116.236 77.1494 116.237 77.3176 116.294C77.4858 116.351 77.625 116.46 77.7093 116.6Z" fill="#6DAFA7"/>
<path d="M71.9711 114.71L69.0844 108.424" stroke="#63737A" stroke-width="1.8" stroke-linecap="round" stroke-linejoin="round"/>
<path d="M74.1185 114.029L71.2318 107.897" stroke="#63737A" stroke-width="1.8" stroke-linecap="round" stroke-linejoin="round"/>
<path d="M84.1516 114.308L85.2077 116.414C85.244 116.485 85.2637 116.561 85.2656 116.639C85.2675 116.717 85.2515 116.794 85.2187 116.867C85.1858 116.939 85.1367 117.005 85.0744 117.06C85.012 117.115 84.9376 117.159 84.8557 117.188L82.6026 118.086C82.4342 118.149 82.2445 118.152 82.0736 118.095C81.9027 118.037 81.7642 117.923 81.6873 117.776L80.596 115.578C80.5242 115.43 80.5208 115.263 80.5865 115.112C80.6522 114.962 80.7819 114.84 80.948 114.772L83.2363 113.967C83.41 113.919 83.5974 113.927 83.7651 113.99C83.9327 114.052 84.0697 114.165 84.1516 114.308Z" fill="#F4C2C9"/>
<path d="M79.0822 112.45L76.2659 106.69" stroke="#63737A" stroke-width="1.8" stroke-linecap="round" stroke-linejoin="round"/>
<path d="M80.9128 111.861L78.0965 106.256" stroke="#63737A" stroke-width="1.8" stroke-linecap="round" stroke-linejoin="round"/>
<path d="M89.4321 111.831L90.9811 114.742L87.9888 115.949L86.4046 112.914L89.4321 111.831Z" stroke="black" stroke-width="1.8" stroke-linecap="round" stroke-linejoin="round"/>
<path d="M85.1725 110.53L82.4266 105.234" stroke="#63737A" stroke-width="1.8" stroke-linecap="round" stroke-linejoin="round"/>
<path d="M86.7214 110.034L84.0107 104.862" stroke="#63737A" stroke-width="1.8" stroke-linecap="round" stroke-linejoin="round"/>
<path d="M81.1945 98.9163C81.2775 99.8696 81.4662 100.813 81.7578 101.735C82.1834 103.321 82.4426 104.938 82.5322 106.566C82.5674 107.402 81.1241 107.123 80.3144 105.822C79.5047 104.522 79.1175 104.15 78.4134 103.809C77.9826 103.633 77.6015 103.375 77.2972 103.053C76.9929 102.732 76.773 102.356 76.6532 101.951C76.2308 100.805 79.9976 97.6465 81.1945 98.9163Z" fill="#F4C2C9"/>
<path d="M92.706 47.5688C90.6994 47.5688 85.278 48.2502 80.6312 57.3861C76.7588 64.9737 74.5057 69.2165 73.9425 72.6541C73.3792 76.0917 72.9216 84.2986 73.3088 90.3066C73.696 96.3147 74.0129 98.8542 74.0129 98.8542C74.0129 98.8542 77.1812 100.681 81.3704 98.8542C81.3704 98.8542 82.4617 91.4835 83.3066 87.1478C84.1515 82.812 84.4683 78.4453 84.2571 76.4943C84.2571 76.4943 89.7841 67.9467 92.2484 64.5401C94.783 61.1334 104.042 47.5688 92.706 47.5688Z" fill="#6DAFA7"/>
<path d="M73.8017 96.5316C75.0399 97.0466 76.3925 97.3137 77.7621 97.3137C79.1317 97.3137 80.4843 97.0466 81.7225 96.5316" stroke="black" stroke-width="1.8" stroke-linecap="round" stroke-linejoin="round"/>
<path d="M74.0833 71.818C74.2842 71.3695 74.6193 70.9772 75.0532 70.6828C75.487 70.3883 76.0035 70.2027 76.5476 70.1457C78.9414 69.836 80.2792 71.9729 79.7159 74.5124C79.1526 77.0518 76.97 78.3216 75.2098 78.0429C74.8554 77.9894 74.5229 77.8556 74.2451 77.6547C73.9673 77.4537 73.7538 77.1926 73.6257 76.897" stroke="black" stroke-width="1.8" stroke-linecap="round" stroke-linejoin="round"/>
<path d="M119.707 169.031C119.789 168.419 120.012 167.829 120.363 167.296C120.714 166.764 121.186 166.3 121.749 165.934C123.65 164.757 125.833 166.925 120.869 168.69" stroke="#63737A" stroke-width="1.8" stroke-linecap="round" stroke-linejoin="round"/>
<path d="M121.573 168.443C121.573 168.443 123.615 167.606 124.671 168.659C125.727 169.712 122.735 170.425 121.151 169.496" stroke="#63737A" stroke-width="1.8" stroke-linecap="round" stroke-linejoin="round"/>
<path d="M89.1505 169.031C89.1505 169.031 92.1428 165.965 94.7479 165.934C97.353 165.903 94.3958 168.473 91.1219 169.371" stroke="#63737A" stroke-width="1.8" stroke-linecap="round" stroke-linejoin="round"/>
<path d="M91.4035 169.031C91.4035 169.031 95.0647 167.792 95.5223 169.031C95.98 170.27 91.6499 169.929 91.6499 169.929" stroke="#63737A" stroke-width="1.8" stroke-linecap="round" stroke-linejoin="round"/>
<path d="M110.906 160.979C110.906 160.979 110.766 166.491 110.906 168.009C111.047 169.526 114.215 170.486 116.75 169.774C119.285 169.062 119.355 167.606 119.355 167.606C119.355 167.606 119.918 160.948 119.918 159.678C119.918 158.408 110.942 158.47 110.906 160.979Z" fill="#F4C2C9"/>
<path d="M110.906 160.979C110.906 160.979 110.871 162.31 110.871 163.859C113.723 164.819 117.208 164.509 119.672 164.138C119.813 162.28 119.954 160.267 119.954 159.616C119.918 158.377 110.942 158.47 110.906 160.979Z" fill="#22272E"/>
<path d="M110.836 167.08C110.836 167.08 110.343 167.018 109.85 170.301C109.357 173.583 108.97 175.565 110.449 175.813C111.927 176.061 125.973 175.813 127.487 175.813C129.001 175.813 130.022 175.101 129.951 174.234C129.881 173.367 126.079 172.004 124.319 170.765C122.559 169.526 119.989 168.04 119.707 167.204C119.214 165.81 118.229 165.284 117.384 167.08C116.715 168.473 114.955 168.628 112.772 168.381C112.342 168.349 111.931 168.21 111.588 167.979C111.245 167.749 110.984 167.437 110.836 167.08Z" fill="#22272E"/>
<path d="M124.847 171.106C124.847 171.106 121.925 171.663 122.347 174.853" stroke="#63737A" stroke-width="1.8" stroke-linecap="round" stroke-linejoin="round"/>
<path d="M82.2154 159.926C82.2154 159.926 81.4409 166.77 81.5113 167.699C81.5817 168.628 84.9613 168.907 87.1439 168.659C89.3265 168.412 89.6081 167.823 89.6081 167.823C89.6081 167.823 91.3331 161.412 91.3331 159.957C91.3331 158.501 82.9194 158.13 82.2154 159.926Z" fill="#F4C2C9"/>
<path d="M82.2154 159.926C82.2154 159.926 82.0746 161.134 81.9337 162.62C84.7852 163.797 87.7071 163.89 90.6995 163.673C91.0515 162.125 91.3683 160.576 91.3683 159.957C91.4035 158.47 82.9194 158.13 82.2154 159.926Z" fill="#22272E"/>
<path d="M81.5465 165.934C81.1858 166.946 80.915 167.982 80.7368 169.031C80.5256 170.487 79.0118 175.256 80.0327 175.937C81.0536 176.619 95.6631 175.937 96.9305 175.937C98.1978 175.937 99.782 175.256 99.6059 174.048C99.4299 172.84 96.7193 172.345 94.7478 171.137C93.1561 170.085 91.6504 168.937 90.2418 167.699C90.2418 167.699 90.6642 165.841 90.3122 165.315C89.9601 164.788 88.8688 166.894 88.0944 167.142C87.3199 167.39 85.6653 167.606 83.025 167.142C82.6736 167.085 82.3478 166.941 82.086 166.727C81.8241 166.513 81.637 166.238 81.5465 165.934Z" fill="#22272E"/>
<path d="M94.7479 171.106C94.7479 171.106 92.2836 171.849 91.9668 174.853" stroke="#63737A" stroke-width="1.8" stroke-linecap="round" stroke-linejoin="round"/>
<path d="M119.038 84.5464C119.038 84.5464 120.27 88.2937 120.975 96.067C121.679 103.84 122.629 118.024 122.911 120.812C123.192 123.599 123.192 131.001 122.347 139.951C121.503 148.901 121.925 156.303 122.207 158.006C122.488 159.709 121.115 161.165 119.742 161.629C118.369 162.094 112.174 162.125 110.906 161.629C110.906 161.629 107.879 160.174 108.301 157.634C108.724 155.095 108.864 149.985 107.492 140.539C106.119 131.093 107.492 124.28 107.492 124.28C107.492 124.28 105.907 120.006 104.112 115.578C103.478 113.998 102.809 112.388 102.211 110.932C101.599 109.394 100.87 107.894 100.028 106.442C98.233 103.778 96.8601 92.1339 98.9371 86.0639C100.979 80.0558 115.588 80.0558 119.038 84.5464Z" fill="#22272E"/>
<path d="M86.7918 84.1747C86.7918 84.1747 83.2011 92.6603 84.1868 102.354C85.1725 112.047 87.2143 123.32 86.7918 124.187C86.3694 125.054 84.8556 129.39 83.3419 139.083C81.8281 148.777 78.519 156.179 79.3287 158.006C80.1383 159.833 82.4266 160.793 83.025 160.917C83.6235 161.041 89.9602 161.629 91.4739 161.412C92.9877 161.196 95.3463 158.997 95.3463 156.457C95.3463 153.918 95.6279 148.467 98.5146 139.734C101.401 131 102.422 128.43 103.443 124.435C104.464 120.44 105.415 99.2568 105.415 99.2568C105.415 99.2568 107.984 88.6962 99.8172 86.5284C91.6499 84.2986 86.7918 84.1747 86.7918 84.1747Z" fill="#22272E"/>
<path d="M94.6422 106.07C94.6422 106.07 100.38 105.265 102.457 106.566" stroke="#63737A" stroke-width="1.8" stroke-linecap="round" stroke-linejoin="round"/>
<path d="M86.5806 91.8242C86.5806 91.8242 90.0658 92.9082 96.0504 93.4346C96.0504 93.4346 95.4167 98.8852 95.0295 100.031C94.6423 101.177 92.002 102.168 90.0306 102.168C88.2 102.168 86.1934 100.403 85.7709 99.102C85.2429 97.3368 86.5806 91.8242 86.5806 91.8242Z" stroke="#63737A" stroke-width="1.8" stroke-linecap="round" stroke-linejoin="round"/>
<path d="M102.81 93.4965C102.81 93.4965 108.724 94.054 113.124 92.6294C113.124 92.6294 113.793 98.4826 113.687 99.4427C113.582 100.403 111.118 102.199 109.287 102.571C107.738 102.88 105.203 101.858 104.006 100.929C102.81 100 102.81 93.4965 102.81 93.4965Z" stroke="#63737A" stroke-width="1.8" stroke-linecap="round" stroke-linejoin="round"/>
<path d="M121.327 100.65C121.327 100.65 118.546 99.1639 118.264 92.5984" stroke="#63737A" stroke-width="1.8" stroke-linecap="round" stroke-linejoin="round"/>
<path d="M104.077 115.609C103.443 114.029 102.774 112.419 102.176 110.963C101.564 109.425 100.835 107.925 99.9932 106.473" stroke="#63737A" stroke-width="1.8" stroke-linecap="round" stroke-linejoin="round"/>
<path d="M89.925 123.847C89.925 123.847 94.1846 123.01 96.7545 123.847" stroke="#63737A" stroke-width="1.8" stroke-linecap="round" stroke-linejoin="round"/>
<path d="M107.456 124.311C108.828 123.867 110.301 123.718 111.751 123.878" stroke="#63737A" stroke-width="1.8" stroke-linecap="round" stroke-linejoin="round"/>
<path d="M83.4835 162.001C83.4835 162.001 83.3419 163.085 83.3419 163.333" stroke="#63737A" stroke-width="1.8" stroke-linecap="round" stroke-linejoin="round"/>
<path d="M86.1942 162.527C86.1942 162.527 86.1234 163.673 86.0526 163.89" stroke="#63737A" stroke-width="1.8" stroke-linecap="round" stroke-linejoin="round"/>
<path d="M89.6434 162.651C89.6434 162.651 89.4673 163.735 89.4321 163.89" stroke="#63737A" stroke-width="1.8" stroke-linecap="round" stroke-linejoin="round"/>
<path d="M112.209 162.992V164.448" stroke="#63737A" stroke-width="1.8" stroke-linecap="round" stroke-linejoin="round"/>
<path d="M115.377 163.085C115.34 163.594 115.27 164.101 115.166 164.602" stroke="#63737A" stroke-width="1.8" stroke-linecap="round" stroke-linejoin="round"/>
<path d="M118.581 163.085C118.581 163.085 118.511 164.014 118.475 164.417" stroke="#63737A" stroke-width="1.8" stroke-linecap="round" stroke-linejoin="round"/>
<path d="M111.118 37.5039C112.517 37.5039 113.652 36.2976 113.652 34.8096C113.652 33.3215 112.517 32.1152 111.118 32.1152C109.718 32.1152 108.583 33.3215 108.583 34.8096C108.583 36.2976 109.718 37.5039 111.118 37.5039Z" stroke="black" stroke-width="1.8" stroke-linecap="round" stroke-linejoin="round"/>
<path d="M111.082 28.7395C111.082 28.7395 111.998 30.1641 111.716 33.2301C111.434 36.2961 112.209 38.8356 111.786 40.8486C111.622 41.6024 111.232 42.304 110.656 42.881C110.081 43.458 109.341 43.8896 108.512 44.1313C107.562 44.3791 102.633 44.9675 100.204 42.1183C97.7754 39.2691 95.5575 30.8764 99.5003 29.266C103.443 27.6556 109.428 27.0982 111.082 28.7395Z" fill="#F4C2C9"/>
<path d="M111.751 40.8485C112.209 38.8045 111.364 36.327 111.681 33.23C111.998 30.1331 111.047 28.7395 111.047 28.7395C109.393 27.0981 103.443 27.6865 99.4651 29.2969C96.4728 30.5047 97.0361 35.6147 98.5146 39.2381C101.366 42.0254 105.45 43.7906 109.815 43.2022C109.968 43.2041 110.122 43.1938 110.273 43.1712C111.054 42.5694 111.576 41.7492 111.751 40.8485Z" fill="#F4C2C9"/>
<path d="M98.5499 39.2382C98.9499 40.2696 99.5065 41.2489 100.204 42.1493C102.633 44.9985 107.527 44.3791 108.513 44.1623C109.176 43.9618 109.786 43.6458 110.308 43.2332C110.097 43.2022 106.365 45.2772 98.5499 39.2382Z" fill="#E26E85"/>
<path d="M109.428 34.7785L113.652 34.6547" stroke="black" stroke-width="1.8" stroke-linecap="round" stroke-linejoin="round"/>
<path d="M104.394 42.335C104.394 42.335 106.224 42.9234 107.316 43.9764C107.316 43.9764 106.964 45.7726 107.104 46.6707C107.245 47.5689 105.767 49.489 102.563 49.3341C99.3596 49.1793 96.6137 47.0424 96.6137 47.0424C96.6137 47.0424 97.0009 43.1402 97.529 41.9944C98.057 40.8485 104.394 42.335 104.394 42.335Z" fill="#F4C2C9"/>
<path d="M106.365 43.2334C106.651 43.414 106.877 43.6585 107.019 43.9417C107.161 44.2248 107.215 44.5363 107.175 44.8438C107.083 45.439 107.06 46.0407 107.104 46.64" stroke="#E26E85" stroke-width="1.8" stroke-linecap="round" stroke-linejoin="round"/>
<path d="M109.181 34.9644C109.665 34.6328 110.021 34.1789 110.202 33.6637C110.449 32.8585 110.59 32.2391 110.59 32.2391C110.923 32.4992 111.304 32.7086 111.716 32.8585C112.385 33.0753 114.11 31.4649 114.356 29.266C114.603 27.0672 113.441 24.7755 110.59 23.8154C109.498 23.4438 107.844 23.3819 106.189 23.4748C103.873 23.6155 101.634 24.265 99.6764 25.3639C99.2042 25.6208 98.6769 25.7894 98.1274 25.8594C96.0856 26.1072 94.8183 26.8195 93.6214 29.328C92.4244 31.8365 92.2836 33.7566 93.903 36.7606C95.5224 39.7647 96.0152 39.9505 96.2616 41.1893C96.5081 42.428 96.1912 43.8217 97.3177 43.6049C100.416 42.9855 103.584 43.7597 104.323 43.3571C105.063 42.9545 107.527 39.1143 107.808 37.2561C108.09 35.398 108.724 34.7476 109.181 34.9644Z" fill="#22272E"/>
<path d="M109.639 35.1501C109.639 35.1501 108.9 33.4158 107.492 33.9423C105.591 34.6546 106.752 37.5967 108.583 38.0922" fill="#F4C2C9"/>
<path d="M107.562 35.46C107.509 35.3192 107.509 35.1672 107.562 35.0264C107.596 34.9408 107.657 34.8656 107.738 34.8096C107.806 34.7504 107.892 34.7101 107.986 34.6935C108.08 34.677 108.177 34.6851 108.266 34.7167C108.339 34.7399 108.4 34.7835 108.442 34.8406C108.477 34.8716 108.512 34.9335 108.548 34.9645C108.583 34.9955 108.583 35.0574 108.618 35.0884C108.673 35.2168 108.697 35.3539 108.688 35.491C108.724 35.7387 108.688 35.9865 108.724 36.1413C108.759 36.2962 108.9 36.4201 109.217 36.482C109.157 36.5333 109.084 36.5714 109.005 36.5929C108.925 36.6145 108.841 36.6189 108.759 36.6059C108.66 36.5904 108.565 36.5578 108.481 36.5099C108.396 36.4621 108.323 36.4 108.266 36.3271C108.137 36.0734 108.065 35.7999 108.055 35.5219C108.055 35.3981 108.02 35.2742 108.02 35.2122V35.1193H108.055C108.02 35.0884 107.949 35.0884 107.844 35.1503C107.721 35.2307 107.624 35.3373 107.562 35.46Z" fill="black"/>
<path d="M96.2968 46.6709C96.2968 46.6709 96.6136 44.6889 96.8249 44.3482C97.0361 44.0075 102.317 43.6669 105.344 44.3482C108.372 45.0295 108.09 47.2903 108.09 47.2903C108.09 47.2903 102.633 46.7328 96.2968 46.6709Z" fill="#6DAFA7"/>
<path d="M85.7709 53.8867C86.3694 50.9136 87.6367 46.2992 99.8524 46.2682C110.273 46.2372 115.096 47.5999 117.63 49.3032C120.165 51.0065 120.447 55.4971 119.637 62.5272C118.827 69.5572 118.686 73.7381 119.144 78.1048C119.602 82.4715 121.608 84.3606 118.933 86.7143C113.228 88.1914 107.313 88.9423 101.366 88.9441C91.5091 88.9441 86.6158 86.5285 86.4046 85.8471C86.1934 85.1658 85.2429 84.949 86.123 83.1838C87.0031 81.4185 87.6015 75.1937 87.0383 71.4464C86.475 67.6991 84.2924 61.3503 85.7709 53.8867Z" fill="#DC2626"/>
<mask id="mask1_154_4105" style="mask-type:luminance" maskUnits="userSpaceOnUse" x="85" y="46" width="36" height="43">
<path d="M85.7709 53.8867C86.3694 50.9136 87.6367 46.2992 99.8524 46.2682C110.273 46.2372 115.096 47.5999 117.63 49.3032C120.165 51.0065 120.447 55.4971 119.637 62.5272C118.827 69.5572 118.686 73.7381 119.144 78.1048C119.602 82.4715 121.608 84.3606 118.933 86.7143C113.228 88.1914 107.313 88.9423 101.366 88.9441C91.5091 88.9441 86.6158 86.5285 86.4046 85.8471C86.1934 85.1658 85.2429 84.949 86.123 83.1838C87.0031 81.4185 87.6015 75.1937 87.0383 71.4464C86.7214 69.2475 85.8061 66.1506 85.4189 62.4652C85.1232 59.6041 85.2415 56.7216 85.7709 53.8867Z" fill="white"/>
</mask>
<g mask="url(#mask1_154_4105)">
<path d="M88.5222 88.5407L87.2654 89.6686L88.5474 90.7742L89.8043 89.6464L88.5222 88.5407Z" fill="#D8DBEA"/>
<path d="M88.4603 83.4065L87.2034 84.5344L88.4855 85.6401L89.7424 84.5122L88.4603 83.4065Z" fill="#D8DBEA"/>
<path d="M88.3705 78.248L87.1137 79.3759L88.3958 80.4815L89.6526 79.3536L88.3705 78.248Z" fill="#D8DBEA"/>
<path d="M88.3329 73.0924L87.0761 74.2203L88.3582 75.326L89.615 74.1981L88.3329 73.0924Z" fill="#D8DBEA"/>
<path d="M88.2675 67.9584L87.0107 69.0863L88.2927 70.192L89.5496 69.0641L88.2675 67.9584Z" fill="#D8DBEA"/>
<path d="M93.7603 88.4941L92.5035 89.6219L93.7856 90.7276L95.0424 89.5997L93.7603 88.4941Z" fill="#D8DBEA"/>
<path d="M93.7191 83.3385L92.4623 84.4664L93.7444 85.5721L95.0012 84.4442L93.7191 83.3385Z" fill="#D8DBEA"/>
<path d="M93.6598 78.2066L92.4029 79.3345L93.685 80.4401L94.9419 79.3123L93.6598 78.2066Z" fill="#D8DBEA"/>
<path d="M93.5978 73.0724L92.341 74.2003L93.6231 75.306L94.8799 74.1781L93.5978 73.0724Z" fill="#D8DBEA"/>
<path d="M93.5567 67.9139L92.2998 69.0417L93.5819 70.1474L94.8388 69.0195L93.5567 67.9139Z" fill="#D8DBEA"/>
<path d="M99.0495 88.4526L97.7927 89.5804L99.0748 90.6861L100.332 89.5582L99.0495 88.4526Z" fill="#D8DBEA"/>
<path d="M98.9841 83.3184L97.7272 84.4463L99.0093 85.552L100.266 84.4241L98.9841 83.3184Z" fill="#D8DBEA"/>
<path d="M98.9222 78.1385L97.6653 79.2664L98.9474 80.372L100.204 79.2441L98.9222 78.1385Z" fill="#D8DBEA"/>
<path d="M98.8567 73.0043L97.5999 74.1322L98.882 75.2379L100.139 74.11L98.8567 73.0043Z" fill="#D8DBEA"/>
<path d="M98.7973 67.8724L97.5404 69.0002L98.8225 70.1059L100.079 68.978L98.7973 67.8724Z" fill="#D8DBEA"/>
<path d="M104.287 88.408L103.03 89.5359L104.312 90.6416L105.569 89.5137L104.287 88.408Z" fill="#D8DBEA"/>
<path d="M104.249 83.2525L102.992 84.3804L104.274 85.486L105.531 84.3582L104.249 83.2525Z" fill="#D8DBEA"/>
<path d="M104.184 78.1183L102.927 79.2462L104.209 80.3519L105.466 79.224L104.184 78.1183Z" fill="#D8DBEA"/>
<path d="M104.122 72.9811L102.865 74.109L104.147 75.2147L105.404 74.0868L104.122 72.9811Z" fill="#D8DBEA"/>
<path d="M104.084 67.8256L102.827 68.9535L104.109 70.0592L105.366 68.9313L104.084 67.8256Z" fill="#D8DBEA"/>
<path d="M109.578 88.3643L108.321 89.4922L109.604 90.5979L110.86 89.47L109.578 88.3643Z" fill="#D8DBEA"/>
<path d="M109.516 83.2271L108.26 84.355L109.542 85.4606L110.798 84.3328L109.516 83.2271Z" fill="#D8DBEA"/>
<path d="M109.451 78.0502L108.194 79.1781L109.476 80.2838L110.733 79.1559L109.451 78.0502Z" fill="#D8DBEA"/>
<path d="M109.389 72.9161L108.132 74.0439L109.414 75.1496L110.671 74.0217L109.389 72.9161Z" fill="#D8DBEA"/>
<path d="M109.324 67.782L108.067 68.9099L109.349 70.0156L110.606 68.8877L109.324 67.782Z" fill="#D8DBEA"/>
<path d="M114.841 88.2962L113.584 89.4241L114.866 90.5297L116.123 89.4019L114.841 88.2962Z" fill="#D8DBEA"/>
<path d="M114.775 83.162L113.518 84.2899L114.8 85.3956L116.057 84.2677L114.775 83.162Z" fill="#D8DBEA"/>
<path d="M114.716 78.0301L113.459 79.158L114.741 80.2636L115.998 79.1357L114.716 78.0301Z" fill="#D8DBEA"/>
<path d="M114.675 72.8715L113.418 73.9994L114.7 75.1051L115.957 73.9772L114.675 72.8715Z" fill="#D8DBEA"/>
<path d="M114.613 67.7374L113.356 68.8652L114.638 69.9709L115.895 68.843L114.613 67.7374Z" fill="#D8DBEA"/>
<path d="M120.102 88.2762L118.845 89.4041L120.127 90.5097L121.384 89.3818L120.102 88.2762Z" fill="#D8DBEA"/>
<path d="M120.064 83.1175L118.808 84.2454L120.09 85.351L121.347 84.2231L120.064 83.1175Z" fill="#D8DBEA"/>
<path d="M119.975 77.962L118.718 79.0898L120 80.1955L121.257 79.0676L119.975 77.962Z" fill="#D8DBEA"/>
<path d="M119.913 72.8279L118.656 73.9558L119.938 75.0615L121.195 73.9336L119.913 72.8279Z" fill="#D8DBEA"/>
<path d="M119.875 67.6692L118.618 68.7971L119.9 69.9028L121.157 68.7749L119.875 67.6692Z" fill="#D8DBEA"/>
<path d="M88.2056 62.8243L86.9487 63.9521L88.2308 65.0578L89.4877 63.9299L88.2056 62.8243Z" fill="#D8DBEA"/>
<path d="M88.1679 57.6657L86.9111 58.7936L88.1932 59.8992L89.45 58.7714L88.1679 57.6657Z" fill="#D8DBEA"/>
<path d="M88.1025 52.5317L86.8457 53.6595L88.1278 54.7652L89.3846 53.6373L88.1025 52.5317Z" fill="#D8DBEA"/>
<path d="M88.0406 47.3974L86.7838 48.5253L88.0659 49.6309L89.3227 48.503L88.0406 47.3974Z" fill="#D8DBEA"/>
<path d="M93.4705 62.7585L92.2136 63.8864L93.4957 64.992L94.7526 63.8641L93.4705 62.7585Z" fill="#D8DBEA"/>
<path d="M93.405 57.6242L92.1482 58.7521L93.4303 59.8577L94.6871 58.7299L93.405 57.6242Z" fill="#D8DBEA"/>
<path d="M93.3674 52.4655L92.1106 53.5934L93.3927 54.6991L94.6495 53.5712L93.3674 52.4655Z" fill="#D8DBEA"/>
<path d="M93.302 47.3315L92.0451 48.4594L93.3272 49.565L94.5841 48.4371L93.302 47.3315Z" fill="#D8DBEA"/>
<path d="M98.7562 62.7137L97.4993 63.8416L98.7814 64.9472L100.038 63.8193L98.7562 62.7137Z" fill="#D8DBEA"/>
<path d="M98.6942 57.5798L97.4374 58.7076L98.7195 59.8133L99.9763 58.6854L98.6942 57.5798Z" fill="#D8DBEA"/>
<path d="M98.6323 52.4456L97.3755 53.5735L98.6576 54.6791L99.9144 53.5513L98.6323 52.4456Z" fill="#D8DBEA"/>
<path d="M98.5912 47.29L97.3343 48.4178L98.6164 49.5235L99.8733 48.3956L98.5912 47.29Z" fill="#D8DBEA"/>
<path d="M104.021 62.6892L102.764 63.8171L104.046 64.9228L105.303 63.7949L104.021 62.6892Z" fill="#D8DBEA"/>
<path d="M103.957 57.5146L102.7 58.6425L103.982 59.7481L105.239 58.6202L103.957 57.5146Z" fill="#D8DBEA"/>
<path d="M103.894 52.3794L102.637 53.5073L103.919 54.613L105.176 53.4851L103.894 52.3794Z" fill="#D8DBEA"/>
<path d="M103.832 47.2454L102.575 48.3733L103.857 49.479L105.114 48.3511L103.832 47.2454Z" fill="#D8DBEA"/>
<path d="M109.286 62.6233L108.029 63.7512L109.311 64.8569L110.568 63.729L109.286 62.6233Z" fill="#D8DBEA"/>
<path d="M109.22 57.4892L107.964 58.6171L109.246 59.7227L110.503 58.5949L109.22 57.4892Z" fill="#D8DBEA"/>
<path d="M109.159 52.3551L107.902 53.483L109.184 54.5887L110.441 53.4608L109.159 52.3551Z" fill="#D8DBEA"/>
<path d="M109.121 47.1996L107.864 48.3275L109.146 49.4332L110.403 48.3053L109.121 47.1996Z" fill="#D8DBEA"/>
<path d="M114.547 62.6033L113.29 63.7312L114.573 64.8369L115.829 63.709L114.547 62.6033Z" fill="#D8DBEA"/>
<path d="M114.485 57.4234L113.229 58.5513L114.511 59.6569L115.768 58.529L114.485 57.4234Z" fill="#D8DBEA"/>
<path d="M114.423 52.2891L113.167 53.417L114.449 54.5227L115.706 53.3948L114.423 52.2891Z" fill="#D8DBEA"/>
<path d="M114.358 47.1549L113.101 48.2828L114.383 49.3885L115.64 48.2606L114.358 47.1549Z" fill="#D8DBEA"/>
<path d="M119.812 62.5373L118.555 63.6652L119.838 64.7708L121.094 63.6429L119.812 62.5373Z" fill="#D8DBEA"/>
<path d="M119.75 57.4032L118.493 58.5311L119.776 59.6368L121.032 58.5089L119.75 57.4032Z" fill="#D8DBEA"/>
<path d="M119.709 52.2477L118.452 53.3756L119.734 54.4813L120.991 53.3534L119.709 52.2477Z" fill="#D8DBEA"/>
<path d="M119.647 47.1136L118.39 48.2415L119.673 49.3471L120.929 48.2192L119.647 47.1136Z" fill="#D8DBEA"/>
</g>
<path d="M133.542 46.2993C133.542 46.2993 134.352 43.9766 134.246 43.1405C134.141 42.3043 133.366 40.4461 133.014 39.7648C132.662 39.0835 132.944 37.1634 132.873 36.2033C132.803 35.2433 134.07 35.491 134.422 36.4511C134.583 36.9528 134.846 37.4249 135.197 37.8447C135.197 37.8447 136.57 35.0574 136.781 34.2832C136.992 33.509 137.555 31.0314 138.4 30.443C139.245 29.8546 139.562 30.474 139.104 32.1463C138.915 32.7622 138.82 33.3975 138.823 34.0354C138.823 34.1284 139.844 34.2832 140.266 34.8097C140.424 35.1363 140.53 35.48 140.583 35.8317C140.877 35.8353 141.166 35.8989 141.428 36.0175C141.674 36.1414 141.956 36.544 142.202 36.7298C142.454 36.9342 142.678 37.1627 142.871 37.4111C143.188 37.8137 143.434 38.6189 142.484 42.0256C141.956 43.8837 141.005 44.5341 140.301 48.8698C139.492 53.2055 132.838 49.0556 133.542 46.2993Z" fill="#F4C2C9"/>
<path d="M134.106 44.2242C133.894 45.1843 133.542 46.2682 133.542 46.2682C132.838 49.0245 139.492 53.1744 140.231 48.8387C140.407 47.7238 140.618 46.8256 140.794 46.1133C139.069 44.5339 136.781 43.6358 134.106 44.2242Z" fill="#63737A"/>
<path d="M139.208 46.9277C139.998 46.5982 140.309 45.717 139.901 44.9596C139.493 44.2023 138.521 43.8554 137.731 44.1849C136.94 44.5145 136.63 45.3956 137.038 46.153C137.446 46.9104 138.417 47.2572 139.208 46.9277Z" fill="white"/>
<path d="M116.574 48.715C116.574 48.715 119.355 48.715 123.298 53.3914C127.241 58.0677 128.051 59.2755 128.051 59.2755C128.752 57.1551 129.574 55.0672 130.515 53.0197C131.413 50.9883 132.166 48.9093 132.768 46.7949C132.843 46.5167 133.005 46.2623 133.235 46.0601C133.465 45.8578 133.754 45.7155 134.07 45.649C135.514 45.3703 138.119 45.3393 140.337 48.1885C140.582 48.5174 140.682 48.914 140.618 49.3034C140.266 51.0996 139.245 56.6431 138.4 62.0318C137.379 68.5664 136.816 74.0789 131.782 74.6364C128.156 75.039 122.876 70.8581 119.179 67.6063C117.736 66.3366 116.539 65.1907 115.8 64.5094C113.934 62.837 111.012 59.5852 111.012 54.9089C111.012 49.7679 115.342 48.4053 116.574 48.715Z" fill="#6DAFA7"/>
<path d="M119.179 67.637C117.736 66.3673 116.539 65.2214 115.8 64.5401C113.934 62.8677 111.012 59.616 111.012 54.9396" stroke="#D8DBEA" stroke-width="1.8" stroke-linecap="round" stroke-linejoin="round"/>
<path d="M128.051 59.2443C128.051 59.2443 132.592 64.4471 133.683 66.9557" stroke="black" stroke-width="1.8" stroke-linecap="round" stroke-linejoin="round"/>
<path d="M129.529 74.3576C129.283 74.2027 129.001 73.893 129.036 73.2427C129.107 72.0658 130.444 70.1767 132.979 69.7122C135.126 69.3096 136.218 69.898 136.429 70.5174" stroke="black" stroke-width="1.8" stroke-linecap="round" stroke-linejoin="round"/>
<path d="M132.486 47.7237C132.486 47.7237 136.992 45.9894 140.337 50.7278" stroke="black" stroke-width="1.8" stroke-linecap="round" stroke-linejoin="round"/>
<path d="M138.752 34.0043C138.752 34.0043 138.682 35.0572 138.647 35.243C138.612 35.4289 138.295 36.5747 138.26 37.0083" stroke="#E26E85" stroke-width="1.8" stroke-linecap="round" stroke-linejoin="round"/>
<path d="M140.514 35.8007V36.6988C140.481 37.0528 140.422 37.4046 140.337 37.7517" stroke="#E26E85" stroke-width="1.8" stroke-linecap="round" stroke-linejoin="round"/>
<path d="M142.027 36.7607C142.088 37.0365 142.124 37.3161 142.133 37.5969C142.102 38.0023 142.043 38.4057 141.956 38.8047" stroke="#E26E85" stroke-width="1.8" stroke-linecap="round" stroke-linejoin="round"/>
<path d="M135.162 37.8135C135.046 38.0678 134.892 38.3074 134.704 38.5258" stroke="#E26E85" stroke-width="1.8" stroke-linecap="round" stroke-linejoin="round"/>
<path d="M117.349 3.84029C117.349 3.84029 115.201 11.3659 118.37 16.4448C118.427 16.5408 118.505 16.6257 118.6 16.6948C118.695 16.764 118.805 16.8159 118.922 16.8475C119.04 16.8792 119.164 16.89 119.287 16.8794C119.409 16.8687 119.528 16.8368 119.637 16.7855L123.932 14.6796L122.207 3.28284L117.349 3.84029Z" fill="#6DAFA7"/>
<path d="M118.299 3.99511C118.299 3.99511 116.257 11.4587 121.186 16.9094C121.333 17.064 121.537 17.1676 121.763 17.2016C121.989 17.2357 122.221 17.1979 122.418 17.0952L127.804 14.246L123.368 2.84924C123.333 2.88021 119.003 3.06603 118.299 3.99511Z" fill="#DC2626"/>
<path d="M117.349 3.84021L119.39 4.21184L130.902 0.309694L128.719 0L117.349 3.84021Z" fill="#B0D7C0"/>
<path d="M130.902 0.30957C130.902 0.30957 131.078 5.26468 137.837 9.01198C137.974 9.08394 138.088 9.18598 138.167 9.30813C138.245 9.43027 138.287 9.56833 138.287 9.70879C138.287 9.84925 138.245 9.9873 138.167 10.1094C138.088 10.2316 137.974 10.3336 137.837 10.4056L127.065 16.0111C126.928 16.0842 126.772 16.1254 126.612 16.1308C126.452 16.1362 126.293 16.1057 126.15 16.042C119.285 12.8522 119.39 4.18075 119.39 4.18075L130.902 0.30957Z" fill="#6DAFA7"/>
<path d="M127.945 6.56527C127.856 6.46774 127.749 6.384 127.628 6.31751C127.457 6.25058 127.27 6.22467 127.084 6.24242C126.898 6.26017 126.721 6.32095 126.571 6.41855C126.42 6.51616 126.302 6.64709 126.228 6.798C126.154 6.94891 126.127 7.11439 126.149 7.27756C126.215 7.65411 126.346 8.01963 126.537 8.36149C126.617 8.13625 126.762 7.93337 126.959 7.77307C127.18 7.5971 127.429 7.45098 127.698 7.3395C128.301 7.08793 128.979 7.01199 129.635 7.12272C130.256 7.23132 130.809 7.54068 131.184 7.98986C131.374 8.21347 131.509 8.46912 131.582 8.74087C131.655 9.01262 131.663 9.29462 131.606 9.5693C131.5 10.1577 131.008 10.6842 130.057 11.1178C129.615 11.3314 129.118 11.4434 128.614 11.4434C128.109 11.4434 127.613 11.3314 127.17 11.1178C126.418 10.7253 125.817 10.1426 125.445 9.44542C125.21 9.09372 125.021 8.7197 124.882 8.33052C124.694 7.89657 124.634 7.42788 124.706 6.96787C124.763 6.6374 124.921 6.32684 125.164 6.06976C125.451 5.78104 125.813 5.55788 126.22 5.4194C126.78 5.1889 127.406 5.11331 128.015 5.20261C128.55 5.27641 129.031 5.53224 129.353 5.91491C128.79 6.19363 128.508 6.31751 127.945 6.56527ZM128.332 10.3745C128.693 10.4623 129.078 10.4405 129.423 10.3126C129.57 10.256 129.7 10.1708 129.804 10.0635C129.907 9.9562 129.982 9.82957 130.022 9.69318C130.046 9.55127 130.037 9.40648 129.994 9.26791C129.952 9.12934 129.877 8.99998 129.775 8.88797C129.585 8.61429 129.283 8.41492 128.931 8.33052C128.615 8.25712 128.28 8.27892 127.98 8.39246C127.741 8.47564 127.542 8.62878 127.417 8.82603C127.333 8.97923 127.298 9.14977 127.317 9.31906C127.336 9.48835 127.407 9.6499 127.522 9.78609C127.705 10.0601 127.992 10.2685 128.332 10.3745Z" fill="#DC2626"/>
<path d="M81.9338 22.7006H93.551L94.7479 23.3819C94.8352 23.4304 94.9358 23.4573 95.0391 23.4597C95.1424 23.4621 95.2444 23.4399 95.3346 23.3955C95.4247 23.3511 95.4995 23.2861 95.5512 23.2074C95.6028 23.1287 95.6293 23.0392 95.628 22.9483V15.7325C95.6294 15.5573 95.5912 15.3835 95.5156 15.2214C95.44 15.0593 95.3286 14.912 95.1877 14.7881C95.0469 14.6642 94.8795 14.5661 94.6952 14.4996C94.5109 14.4332 94.3134 14.3996 94.1142 14.4008H81.9338C81.7346 14.3996 81.5371 14.4332 81.3528 14.4996C81.1685 14.5661 81.0011 14.6642 80.8602 14.7881C80.7194 14.912 80.6079 15.0593 80.5324 15.2214C80.4568 15.3835 80.4186 15.5573 80.42 15.7325V21.3689C80.4186 21.5441 80.4568 21.7179 80.5324 21.88C80.6079 22.0421 80.7194 22.1894 80.8602 22.3133C81.0011 22.4372 81.1685 22.5353 81.3528 22.6017C81.5371 22.6682 81.7346 22.7018 81.9338 22.7006Z" fill="#F4C2C9"/>
<path d="M83.8699 17.281L84.4684 17.8075L85.6301 16.7855" stroke="#22272E" stroke-width="1.8" stroke-linecap="round" stroke-linejoin="round"/>
<path d="M87.4255 17.4357H91.5091" stroke="#22272E" stroke-width="1.8" stroke-linecap="round" stroke-linejoin="round"/>
<path d="M83.8699 19.7893L84.4684 20.3158L85.6301 19.2938" stroke="#22272E" stroke-width="1.8" stroke-linecap="round" stroke-linejoin="round"/>
<path d="M87.4255 19.9442H91.5091" stroke="#22272E" stroke-width="1.8" stroke-linecap="round" stroke-linejoin="round"/>
<path d="M136.359 112.388L135.302 113.379C135.261 113.416 135.228 113.459 135.205 113.507C135.182 113.555 135.171 113.606 135.171 113.658C135.171 113.709 135.182 113.761 135.205 113.809C135.228 113.856 135.261 113.9 135.302 113.936C135.374 114.012 135.476 114.061 135.588 114.073C135.699 114.084 135.811 114.058 135.901 113.998L137.133 113.348L136.359 112.388Z" fill="#22272E"/>
<path d="M145.758 114.804L146.04 116.135C146.058 116.238 146.032 116.342 145.967 116.428C145.901 116.514 145.802 116.575 145.688 116.6C145.585 116.628 145.473 116.621 145.376 116.581C145.278 116.541 145.201 116.471 145.159 116.383L144.526 115.237L145.758 114.804Z" fill="#22272E"/>
<path d="M142.308 115.949C146.177 115.949 149.314 113.19 149.314 109.787C149.314 106.383 146.177 103.624 142.308 103.624C138.439 103.624 135.302 106.383 135.302 109.787C135.302 113.19 138.439 115.949 142.308 115.949Z" fill="#6DAFA7"/>
<path d="M142.308 113.751C144.797 113.751 146.814 111.976 146.814 109.787C146.814 107.597 144.797 105.822 142.308 105.822C139.819 105.822 137.802 107.597 137.802 109.787C137.802 111.976 139.819 113.751 142.308 113.751Z" fill="#DC2626"/>
<path d="M143.575 111.211L142.308 109.787L142.977 107.805" stroke="#63737A" stroke-width="1.8" stroke-linecap="round" stroke-linejoin="round"/>
<path d="M137.837 103.84C137.791 103.855 137.742 103.86 137.693 103.857C137.644 103.853 137.597 103.841 137.554 103.821C137.511 103.8 137.473 103.772 137.443 103.738C137.413 103.704 137.391 103.665 137.379 103.624C137.307 103.22 137.393 102.807 137.624 102.452C137.854 102.097 138.215 101.822 138.647 101.672C139.082 101.522 139.564 101.512 140.008 101.642C140.452 101.772 140.83 102.035 141.076 102.385C141.099 102.423 141.113 102.465 141.117 102.508C141.121 102.552 141.114 102.595 141.098 102.636C141.081 102.677 141.055 102.714 141.021 102.746C140.987 102.777 140.946 102.802 140.9 102.818L137.837 103.84Z" fill="#6DAFA7"/>
<path d="M149.701 106.875C149.729 106.913 149.766 106.945 149.811 106.968C149.855 106.99 149.905 107.004 149.956 107.007C150.007 107.01 150.059 107.002 150.106 106.985C150.153 106.967 150.195 106.94 150.229 106.906C150.54 106.599 150.721 106.205 150.74 105.793C150.759 105.382 150.615 104.977 150.333 104.648C150.05 104.319 149.647 104.087 149.191 103.99C148.736 103.894 148.257 103.939 147.835 104.119C147.79 104.141 147.751 104.171 147.721 104.207C147.69 104.244 147.669 104.285 147.659 104.33C147.649 104.374 147.65 104.42 147.662 104.463C147.675 104.507 147.697 104.548 147.729 104.584L149.701 106.875Z" fill="#6DAFA7"/>
<path d="M145.476 103.159L143.646 102.694C143.573 102.677 143.505 102.648 143.446 102.607C143.387 102.566 143.338 102.515 143.302 102.457C143.266 102.4 143.243 102.336 143.236 102.27C143.228 102.204 143.236 102.138 143.259 102.075C143.278 102.011 143.312 101.951 143.358 101.899C143.404 101.847 143.462 101.804 143.528 101.772C143.594 101.741 143.666 101.721 143.741 101.714C143.816 101.708 143.891 101.715 143.963 101.734L145.793 102.199C145.866 102.216 145.934 102.246 145.993 102.286C146.052 102.327 146.101 102.378 146.137 102.436C146.173 102.494 146.196 102.557 146.203 102.623C146.211 102.689 146.203 102.755 146.18 102.818C146.164 102.884 146.133 102.946 146.087 102.999C146.042 103.053 145.984 103.098 145.917 103.13C145.85 103.162 145.776 103.182 145.7 103.187C145.624 103.192 145.548 103.182 145.476 103.159Z" fill="#6DAFA7"/>
<path d="M143.991 102.496L143.49 104.013L144.808 104.35L145.309 102.833L143.991 102.496Z" fill="#6DAFA7"/>
<g clip-path="url(#clip0_154_4105)">
<path d="M212.334 81.3216C212.334 81.3216 212.386 76.3556 211.114 73.481C211.114 73.481 197.375 76.0415 194.83 77.5577C194.83 77.5577 197.119 79.9102 197.833 82.7848C198.597 85.6065 212.234 86.1817 212.334 81.3216Z" fill="white"/>
<path d="M212.742 84.9279C212.742 84.9279 213.602 75.8851 214.014 74.0032C214.014 74.0032 202.87 74.9442 198.697 77.4013L199.817 86.9663L212.742 84.9279Z" fill="#F4C2C9"/>
<path d="M225.107 91.931C225.107 91.931 225.057 85.2457 226.837 82.0532C226.837 82.0532 216.355 82.2613 214.014 83.6728C211.674 85.0843 211.982 91.8793 211.982 91.8793C211.982 91.8793 224.649 92.6639 225.107 91.931Z" fill="white"/>
<path d="M226.837 89.0046H215.287V121.673H226.837V89.0046Z" fill="#6DAFA7"/>
<path d="M221.088 117.177C222.324 117.177 223.326 116.148 223.326 114.878C223.326 113.608 222.324 112.578 221.088 112.578C219.851 112.578 218.849 113.608 218.849 114.878C218.849 116.148 219.851 117.177 221.088 117.177Z" stroke="#22272E" stroke-width="7.46" stroke-linecap="round" stroke-linejoin="round"/>
<path d="M203.735 121.725V81.3217L196.815 83.0459V117.491L203.735 121.725Z" fill="#6DAFA7"/>
<path d="M215.285 81.3217H203.735V121.725H215.285V81.3217Z" fill="#DC2626"/>
<path d="M209.485 117.177C210.722 117.177 211.724 116.148 211.724 114.878C211.724 113.608 210.722 112.578 209.485 112.578C208.249 112.578 207.247 113.608 207.247 114.878C207.247 116.148 208.249 117.177 209.485 117.177Z" stroke="#22272E" stroke-width="7.46" stroke-linecap="round" stroke-linejoin="round"/>
<path d="M206.687 106.044H212.334" stroke="#22272E" stroke-width="7.46" stroke-linecap="round" stroke-linejoin="round"/>
<path d="M206.687 108.344H212.334" stroke="#22272E" stroke-width="7.46" stroke-linecap="round" stroke-linejoin="round"/>
<path d="M435.818 244.288C352.238 325.288 248.388 341.288 210.758 285.538C177.468 236.288 208.948 148.738 276.978 85.418C343.918 23.178 432.198 -2.51197 479.978 30.418C533.878 67.288 517.958 164.658 435.818 244.288Z" fill="#F8AB5D"/>
<path d="M423.878 231.958C340.298 313.008 236.448 328.958 198.818 273.208C165.528 223.998 197.008 136.438 265.038 73.1079C331.978 10.8779 420.258 -14.8121 468.038 18.1079C522.298 55.3779 506.018 152.718 423.878 231.958Z" fill="#FFE779"/>
<path d="M388.778 196.858C338.488 244.988 275.528 256.928 250.198 224.718C227.038 195.048 245.498 138.968 289.638 97.718C333.418 56.828 390.228 41.268 419.538 64.428C451.018 89.038 438.358 149.098 388.778 196.858Z" fill="#6DAFA7"/>
</g>
<defs>
<clipPath id="clip0_154_4105">
<rect width="60.3323" height="48.4365" fill="white" transform="translate(180.668 73.288)"/>
</clipPath>
</defs>
</svg>
