<svg width="291" height="291" viewBox="0 0 291 291" fill="none" xmlns="http://www.w3.org/2000/svg">
<g filter="url(#filter0_d_217_96)">
<circle cx="145.419" cy="139.182" r="73.8868" transform="rotate(-14.9282 145.419 139.182)" fill="url(#paint0_radial_217_96)"/>
<circle cx="145.419" cy="139.182" r="70.7323" transform="rotate(-14.9282 145.419 139.182)" stroke="white" stroke-width="6.30902"/>
</g>
<path d="M188.773 130.579C190.918 141.391 188.946 152.614 183.244 162.047C177.542 171.48 168.521 178.442 157.951 181.567C147.38 184.692 136.024 183.755 126.109 178.94C116.194 174.124 108.436 165.778 104.357 155.538" stroke="white" stroke-width="4.86557" stroke-linecap="round"/>
<path fill-rule="evenodd" clip-rule="evenodd" d="M164.446 140.292C169.782 138.869 171.993 129.786 169.385 120.005C166.777 110.223 160.338 103.446 155.002 104.869C150.965 105.945 148.717 111.407 148.991 118.238L156.088 125.353L150.555 126.828C153.415 135.697 159.42 141.632 164.446 140.292Z" fill="white"/>
<path fill-rule="evenodd" clip-rule="evenodd" d="M128.609 152.216C133.944 150.794 136.156 141.711 133.548 131.929C130.94 122.147 124.5 115.371 119.165 116.793C115.128 117.87 112.88 123.331 113.154 130.163L120.251 137.277L114.718 138.752C117.578 147.621 123.583 153.556 128.609 152.216Z" fill="white"/>
<defs>
<filter id="filter0_d_217_96" x="0.152023" y="0.402446" width="290.534" height="290.534" filterUnits="userSpaceOnUse" color-interpolation-filters="sRGB">
<feFlood flood-opacity="0" result="BackgroundImageFix"/>
<feColorMatrix in="SourceAlpha" type="matrix" values="0 0 0 0 0 0 0 0 0 0 0 0 0 0 0 0 0 0 127 0" result="hardAlpha"/>
<feOffset dy="6.48742"/>
<feGaussianBlur stdDeviation="35.6808"/>
<feComposite in2="hardAlpha" operator="out"/>
<feColorMatrix type="matrix" values="0 0 0 0 0 0 0 0 0 0 0 0 0 0 0 0 0 0 0.59 0"/>
<feBlend mode="normal" in2="BackgroundImageFix" result="effect1_dropShadow_217_96"/>
<feBlend mode="normal" in="SourceGraphic" in2="effect1_dropShadow_217_96" result="shape"/>
</filter>
<radialGradient id="paint0_radial_217_96" cx="0" cy="0" r="1" gradientUnits="userSpaceOnUse" gradientTransform="translate(-15.2343 163.055) rotate(-36.4235) scale(662.89 210.002)">
<stop stop-color="#FC0808"/>
<stop offset="0.286458" stop-color="#0464D5"/>
<stop offset="0.557292" stop-color="#4F21D1"/>
<stop offset="0.78125" stop-color="#DB6BAE"/>
<stop offset="1" stop-color="#DD4C4C"/>
<stop offset="1" stop-color="#DD4C4C"/>
</radialGradient>
</defs>
</svg>
