<svg width="1074" height="508" viewBox="0 0 1074 508" fill="none" xmlns="http://www.w3.org/2000/svg">
<g opacity="0.4">
<path d="M370.893 69.4213C370.893 112.403 370.945 208.005 370.945 257.254M370.945 257.254C369.634 309.141 336.367 354.809 285.134 370.426C280.709 371.775 274.645 373.023 270.64 373.741C254.296 376.671 241.502 375.443 230.404 373.741C183.186 366.496 131.699 324.453 129.433 256.936V2.07832L2.25793 2.05329V249.803C0.464623 397.656 113.222 494.042 230.675 504.143C244.717 505.35 256.891 505.41 270.946 504.143C407.771 491.805 497.347 379.892 500.824 263.182L499.235 164.319C500.494 141.444 514.016 128.393 527.723 122.016C544.385 114.265 566.299 117.265 581.467 132.633C596.635 148.001 693.381 268.086 693.381 268.086L491.258 505.396H638.166L766.971 355.751L896.851 505.454H1063.26L667.124 42.3482L655.753 28.9C644.203 16.4611 626.11 2 593.249 2H432.07C428.52 2.00027 420.852 2.08477 418.586 2.42056C376.44 8.66444 370.728 47.0788 370.893 55.7798L370.945 257.254ZM919.68 2.09468L814.639 125.418L889.537 212.723L1069.6 2.09563L919.68 2.09468Z" stroke="black" stroke-width="4"/>
<path d="M370.893 69.4213C370.893 112.403 370.945 208.005 370.945 257.254M370.945 257.254C369.634 309.141 336.367 354.809 285.134 370.426C280.709 371.775 274.645 373.023 270.64 373.741C254.296 376.671 241.502 375.443 230.404 373.741C183.186 366.496 131.699 324.453 129.433 256.936V2.07832L2.25793 2.05329V249.803C0.464623 397.656 113.222 494.042 230.675 504.143C244.717 505.35 256.891 505.41 270.946 504.143C407.771 491.805 497.347 379.892 500.824 263.182L499.235 164.319C500.494 141.444 514.016 128.393 527.723 122.016C544.385 114.265 566.299 117.265 581.467 132.633C596.635 148.001 693.381 268.086 693.381 268.086L491.258 505.396H638.166L766.971 355.751L896.851 505.454H1063.26L667.124 42.3482L655.753 28.9C644.203 16.4611 626.11 2 593.249 2H432.07C428.52 2.00027 420.852 2.08477 418.586 2.42056C376.44 8.66444 370.728 47.0788 370.893 55.7798L370.945 257.254ZM919.68 2.09468L814.639 125.418L889.537 212.723L1069.6 2.09563L919.68 2.09468Z" stroke="url(#paint0_radial_217_84)" stroke-width="4"/>
</g>
<defs>
<radialGradient id="paint0_radial_217_84" cx="0" cy="0" r="1" gradientUnits="userSpaceOnUse" gradientTransform="translate(74.9029 58.4168) rotate(27.1862) scale(1061.83 2370.2)">
<stop stop-color="#08CBFC"/>
<stop offset="0.286458" stop-color="#0464D5"/>
<stop offset="0.557292" stop-color="#4F21D1"/>
<stop offset="0.78125" stop-color="#DB6BAE"/>
<stop offset="1" stop-color="#DD4C4C"/>
<stop offset="1" stop-color="#DD4C4C"/>
</radialGradient>
</defs>
</svg>
